<svg xmlns="http://www.w3.org/2000/svg" width="18.75" height="25" viewBox="0 0 18.75 25"><g transform="translate(-2 0)"><path d="M18.625,22.808H3V1.687l.906.659a.781.781,0,0,0,.92,0L6.508,1.119,8.2,2.346a.778.778,0,0,0,.919,0L10.8,1.118l1.686,1.228a.778.778,0,0,0,.919,0L15.1,1.118l1.694,1.229a.781.781,0,0,0,.919,0l.914-.663Z" transform="translate(0.562 0.629)" fill="#fff" opacity="0.2"/><path d="M20.324.086a.786.786,0,0,0-.815.063l-1.7,1.23L16.12.149a.781.781,0,0,0-.919,0L13.511,1.378,11.825.15a.778.778,0,0,0-.919,0L9.217,1.378,7.53.15a.781.781,0,0,0-.92,0L4.928,1.377,3.241.15A.781.781,0,0,0,2,.781V24.219A.781.781,0,0,0,2.781,25H19.968a.781.781,0,0,0,.781-.781V.781a.782.782,0,0,0-.426-.7ZM19.187,23.437H3.562V2.316l.906.659a.781.781,0,0,0,.92,0L7.071,1.748,8.758,2.976a.778.778,0,0,0,.919,0l1.689-1.228,1.686,1.228a.778.778,0,0,0,.919,0l1.691-1.228,1.694,1.229a.781.781,0,0,0,.919,0l.914-.663Z" transform="translate(0)" fill="#fff"/><path d="M10.188,4.618V3H8.625V4.618a3.669,3.669,0,0,0-1.091,6.913l1.091.545v4.9a2.112,2.112,0,0,1-1.562-2.033V13.937H5.5v1.009a3.674,3.674,0,0,0,3.125,3.622v1.618h1.562V18.569a3.669,3.669,0,0,0,1.091-6.913l-1.091-.545v-4.9A2.112,2.112,0,0,1,11.75,8.241V9.25h1.562V8.241a3.674,3.674,0,0,0-3.125-3.622Zm.392,8.435a2.109,2.109,0,0,1-.392,3.926V12.858Zm-2.347-2.92a2.109,2.109,0,0,1,.392-3.926v4.122Z" transform="translate(1.969 1.688)" fill="#fff"/></g></svg>