<svg xmlns="http://www.w3.org/2000/svg" width="20.578" height="24" viewBox="0 0 20.578 24"><g transform="translate(-1.1)"><path d="M20.45,16.95c-1.5-2.85-3-2.4-4.65-2.55a4.624,4.624,0,0,1,.15,1.5c2.4.6,3,3.45,3,5.1v1.5h-3V21h1.5s0-3.75-2.25-3.75-2.25,3.6-2.25,3.75h1.5v1.5h-3V21c0-1.65.6-4.65,3-5.1a5.213,5.213,0,0,0-.3-1.95,1.013,1.013,0,0,1-.6-.9c0-.9,1.2-.6,2.1-2.25a14.791,14.791,0,0,0,.9-6.45h-1.5c0-.3.15-.45.15-.75a1.352,1.352,0,0,0-.15-.75h1.2C15.8,1.35,14.3,0,11.45,0S7.1,1.35,6.5,3H7.7c0,.3-.15.45-.15.75a1.352,1.352,0,0,0,.15.75H6.2a17.77,17.77,0,0,0,.9,6.45c.9,1.5,2.1,1.2,2.1,2.25,0,.75-.75,1.05-1.65,1.2a2.869,2.869,0,0,0-.6,2.1v1.8a2.256,2.256,0,0,1,1.5,2.1A2.286,2.286,0,0,1,6.2,22.5a2.307,2.307,0,0,1-2.25-2.25,2.118,2.118,0,0,1,1.5-2.1v-1.8a7.6,7.6,0,0,1,.3-1.95,4.2,4.2,0,0,0-3.3,2.55C1.55,18.6,1.1,24,1.1,24H21.65c.15,0-.3-5.4-1.2-7.05ZM9.2,3.75a2.25,2.25,0,0,1,4.5,0,2.25,2.25,0,0,1-4.5,0Z" transform="translate(0)" fill="#fff"/><path d="M5,13.5a.5.5,0,1,1-.5-.5A.5.5,0,0,1,5,13.5Z" transform="translate(1.564 8)" fill="#fff"/></g></svg>