<svg xmlns="http://www.w3.org/2000/svg" width="24" height="24" viewBox="0 0 24 24"><g transform="translate(0 0.033)"><rect width="24" height="24" rx="6" transform="translate(0 -0.033)" fill="#fff"/><path d="M69.509,70.52H63.438a1.014,1.014,0,1,1,0-2.024h6.071a1.012,1.012,0,1,1,0,2.024Zm-6.071-8.157H66.41a1.012,1.012,0,0,1,0,2.023H63.438a1.014,1.014,0,1,1,0-2.023Zm11.445,2.656-.126-.316-.253-.19c-.316-.19-1.9.063-2.34-.316a3.6,3.6,0,0,1-.443-1.454,3.972,3.972,0,0,0-.443-1.834A5.829,5.829,0,0,0,67.106,58H63.375A5.357,5.357,0,0,0,58,63.312v6.26a5.37,5.37,0,0,0,5.375,5.375h6.134a5.37,5.37,0,0,0,5.375-5.375l.063-3.541v-.759Z" transform="translate(-54.332 -54.386)" fill="#56b3e0" fill-rule="evenodd"/></g></svg>