<svg xmlns="http://www.w3.org/2000/svg" width="19.2" height="24" viewBox="0 0 19.2 24"><path d="M4,14a1.2,1.2,0,0,0,1.2,1.2h9.108l-2.76,2.748a1.2,1.2,0,1,0,1.7,1.7l4.8-4.8a1.241,1.241,0,0,0,0-1.7l-4.8-4.8a1.2,1.2,0,0,0-1.7,1.7l2.76,2.748H5.2A1.2,1.2,0,0,0,4,14ZM19.6,2H7.6A3.6,3.6,0,0,0,4,5.6V9.2a1.2,1.2,0,0,0,2.4,0V5.6A1.2,1.2,0,0,1,7.6,4.4h12a1.2,1.2,0,0,1,1.2,1.2V22.4a1.2,1.2,0,0,1-1.2,1.2H7.6a1.2,1.2,0,0,1-1.2-1.2V18.8a1.2,1.2,0,1,0-2.4,0v3.6A3.6,3.6,0,0,0,7.6,26h12a3.6,3.6,0,0,0,3.6-3.6V5.6A3.6,3.6,0,0,0,19.6,2Z" transform="translate(-4 -2)" fill="#fff"/></svg>