<svg width="203" height="60" viewBox="0 0 203 60" fill="none" xmlns="http://www.w3.org/2000/svg">
<path d="M201.124 52.9161C201.124 53.6713 200.975 54.4191 200.686 55.1167C200.396 55.8143 199.972 56.448 199.438 56.9817C198.904 57.5154 198.27 57.9386 197.572 58.227C196.874 58.5154 196.126 58.6635 195.37 58.6627H7.09618C5.5702 58.6643 4.10608 58.0598 3.02579 56.9822C1.94549 55.9045 1.3375 54.442 1.33551 52.9161V7.08904C1.3375 5.56254 1.94525 4.09921 3.02533 3.02037C4.1054 1.94153 5.56951 1.33536 7.09618 1.33496H195.369C196.125 1.33496 196.873 1.48381 197.571 1.77299C198.269 2.06218 198.903 2.48605 199.438 3.02038C199.972 3.55472 200.396 4.18906 200.685 4.88716C200.974 5.58527 201.122 6.33348 201.122 7.08904L201.124 52.9161Z" fill="white"/>
<path d="M195.37 60H7.09617C5.21635 59.9996 3.41346 59.2536 2.0831 57.9256C0.752737 56.5976 0.00357679 54.7962 0 52.9166L0 7.09095C0.00278092 5.21039 0.751447 3.40771 2.08176 2.07837C3.41208 0.749034 5.21541 0.00158727 7.09617 0L195.369 0C197.249 0.00237927 199.052 0.75008 200.382 2.07925C201.713 3.40841 202.462 5.21063 202.465 7.09095V52.9166C202.468 56.8236 199.279 60 195.37 60Z" fill="#A6A6A6"/>
<path d="M201.124 52.9161C201.124 53.6713 200.975 54.4191 200.686 55.1167C200.396 55.8143 199.972 56.448 199.438 56.9817C198.904 57.5154 198.27 57.9386 197.572 58.227C196.874 58.5154 196.126 58.6635 195.37 58.6627H7.09618C5.5702 58.6643 4.10608 58.0598 3.02579 56.9822C1.94549 55.9045 1.3375 54.442 1.33551 52.9161V7.08904C1.3375 5.56254 1.94525 4.09921 3.02533 3.02037C4.1054 1.94153 5.56951 1.33536 7.09618 1.33496H195.369C196.125 1.33496 196.873 1.48381 197.571 1.77299C198.269 2.06218 198.903 2.48605 199.438 3.02038C199.972 3.55472 200.396 4.18906 200.685 4.88716C200.974 5.58527 201.122 6.33348 201.122 7.08904L201.124 52.9161Z" fill="black"/>
<path d="M45.209 29.6842C45.1655 24.8484 49.169 22.4957 49.352 22.3862C47.0847 19.0808 43.5704 18.6292 42.3354 18.5932C39.3838 18.2826 36.5207 20.3592 35.0172 20.3592C33.4836 20.3592 31.1682 18.6232 28.6728 18.6742C25.4616 18.7237 22.4574 20.5827 20.8098 23.4695C17.4095 29.3556 19.9455 38.0055 23.2032 42.7633C24.8328 45.095 26.737 47.6952 29.2295 47.6036C31.6679 47.5046 32.5787 46.0507 35.5213 46.0507C38.4369 46.0507 39.2923 47.6037 41.8342 47.5451C44.4512 47.5046 46.0988 45.2045 47.6714 42.8533C49.5546 40.1841 50.3109 37.5524 50.3409 37.4174C50.2809 37.3963 45.26 35.4788 45.209 29.6842ZM40.4072 15.4633C41.7187 13.8234 42.616 11.5922 42.3669 9.32812C40.4687 9.41215 38.0948 10.641 36.7278 12.2449C35.5183 13.6583 34.4379 15.975 34.717 18.1536C36.8493 18.3126 39.0387 17.0778 40.4072 15.4633Z" fill="white"/>
<path d="M195.37 0H94.525L134.024 60H195.37C197.251 59.9984 199.053 59.2514 200.384 57.9227C201.714 56.594 202.463 54.7921 202.467 52.9121V7.09095C202.463 5.21051 201.715 3.40806 200.384 2.07881C199.054 0.749557 197.251 0.00198342 195.37 0Z" fill="url(#paint0_linear_110_56)"/>
<path d="M80.5278 47.2689H77.12L75.2533 41.4038H68.7649L66.9867 47.2689H63.6689L70.0989 27.3014H74.0694L80.5278 47.2689ZM74.6906 38.9431L73.0025 33.7292C72.8239 33.1966 72.4878 31.9422 71.9956 29.9677H71.9356C71.7375 30.8169 71.4209 32.0713 70.9872 33.7292L69.3276 38.9431H74.6906ZM97.031 39.8929C97.031 42.3416 96.3662 44.2771 95.0352 45.698C93.8438 46.9628 92.3627 47.5945 90.5966 47.5945C88.6893 47.5945 87.3178 46.9148 86.485 45.5525V53.107H83.2858V37.6033C83.2858 36.0654 83.2453 34.4884 83.1673 32.871H85.9808L86.1594 35.1531H86.2194C87.2863 33.4336 88.9054 32.5739 91.0782 32.5739C92.7769 32.5739 94.1949 33.2446 95.3293 34.5874C96.4623 35.9333 97.031 37.7008 97.031 39.8929ZM93.7718 40.0099C93.7718 38.6085 93.4566 37.4532 92.8234 36.5425C92.1316 35.5957 91.2028 35.1216 90.0384 35.1216C89.2491 35.1216 88.5318 35.3857 87.891 35.9063C87.2488 36.4314 86.8287 37.1171 86.6321 37.9664C86.5443 38.284 86.4945 38.6108 86.4835 38.9401V41.3423C86.4835 42.3881 86.8046 43.2718 87.4469 43.995C88.0891 44.7152 88.9234 45.0768 89.9498 45.0768C91.1548 45.0768 92.0926 44.6102 92.7634 43.6844C93.4356 42.7557 93.7718 41.5314 93.7718 40.0099ZM113.593 39.8929C113.593 42.3416 112.928 44.2771 111.597 45.698C110.404 46.9628 108.924 47.5945 107.157 47.5945C105.25 47.5945 103.878 46.9148 103.045 45.5525V53.107H99.846V37.6033C99.846 36.0654 99.8055 34.4884 99.7275 32.871H102.541L102.72 35.1531H102.78C103.845 33.4336 105.464 32.5739 107.638 32.5739C109.336 32.5739 110.754 33.2446 111.891 34.5874C113.022 35.9333 113.593 37.7008 113.593 39.8929ZM110.332 40.0099C110.332 38.6085 110.015 37.4532 109.382 36.5425C108.69 35.5957 107.765 35.1216 106.6 35.1216C105.811 35.1216 105.094 35.3857 104.45 35.9063C103.808 36.4314 103.389 37.1171 103.192 37.9664C103.095 38.3625 103.042 38.6851 103.042 38.9401V41.3423C103.042 42.3881 103.365 43.2718 104.004 43.995C104.646 44.7137 105.481 45.0768 106.51 45.0768C107.717 45.0768 108.654 44.6102 109.324 43.6844C109.996 42.7557 110.332 41.5314 110.332 40.0099ZM132.11 41.6679C132.11 43.3679 131.515 44.7497 130.335 45.8165C129.035 46.9809 127.221 47.5645 124.895 47.5645C122.746 47.5645 121.024 47.1504 119.724 46.3207L120.464 43.6544C121.867 44.4857 123.408 44.8998 125.086 44.8998C126.292 44.8998 127.23 44.6267 127.899 44.0851C128.57 43.5419 128.909 42.8157 128.909 41.9095C128.909 41.0977 128.628 40.418 128.078 39.8644C127.524 39.3122 126.609 38.7976 125.323 38.325C121.826 37.0211 120.077 35.1141 120.077 32.6054C120.077 30.9669 120.695 29.6256 121.928 28.5768C123.162 27.5295 124.797 27.0059 126.832 27.0059C128.649 27.0059 130.163 27.3224 131.365 27.9541L130.563 30.5618C129.431 29.9497 128.154 29.6436 126.726 29.6436C125.597 29.6436 124.712 29.9212 124.079 30.4733C123.546 30.9669 123.276 31.5686 123.276 32.2828C123.276 33.0705 123.583 33.7247 124.196 34.2378C124.727 34.7105 125.696 35.2251 127.098 35.7773C128.817 36.4705 130.081 37.2777 130.89 38.2049C131.705 39.1322 132.11 40.289 132.11 41.6679ZM142.714 35.2716H139.188V42.2621C139.188 44.04 139.809 44.9268 141.055 44.9268C141.626 44.9268 142.1 44.8788 142.476 44.7782L142.564 47.2074C141.934 47.443 141.104 47.5615 140.076 47.5615C138.813 47.5615 137.825 47.1759 137.113 46.4047C136.403 45.6335 136.046 44.3416 136.046 42.5231V35.2656H133.945V32.865H136.046V30.2287L139.188 29.2805V32.865H142.714V35.2716ZM158.593 39.9514C158.593 42.1645 157.96 43.9815 156.696 45.4024C155.374 46.8653 153.616 47.5945 151.423 47.5945C149.308 47.5945 147.625 46.8938 146.371 45.4939C145.117 44.0911 144.489 42.3236 144.489 40.1915C144.489 37.9604 145.138 36.1329 146.43 34.712C147.725 33.2896 149.468 32.5784 151.661 32.5784C153.773 32.5784 155.47 33.2806 156.755 34.682C157.982 36.0413 158.593 37.7968 158.593 39.9514ZM155.277 40.0249C155.277 38.7061 154.992 37.5748 154.42 36.628C153.749 35.4847 152.789 34.913 151.545 34.913C150.263 34.913 149.281 35.4847 148.611 36.628C148.038 37.5748 147.753 38.7256 147.753 40.085C147.753 41.4053 148.038 42.5396 148.611 43.4834C149.303 44.6267 150.268 45.1984 151.518 45.1984C152.741 45.1984 153.7 44.6147 154.393 43.4549C154.981 42.4856 155.277 41.3468 155.277 40.0249ZM168.997 35.6842C168.664 35.6242 168.326 35.5946 167.988 35.5957C166.863 35.5957 165.992 36.0188 165.38 36.8711C164.849 37.6213 164.582 38.5695 164.582 39.7144V47.2689H161.383V37.4052C161.386 35.8938 161.355 34.3825 161.29 32.8725H164.076L164.193 35.6272H164.282C164.621 34.6805 165.152 33.9168 165.881 33.3451C166.549 32.8456 167.36 32.5751 168.194 32.5739C168.489 32.5739 168.756 32.5949 168.994 32.6324L168.997 35.6842ZM183.304 39.3888C183.313 39.875 183.273 40.361 183.187 40.8397H173.59C173.626 42.2621 174.091 43.3514 174.982 44.1016C175.791 44.7707 176.837 45.1068 178.121 45.1068C179.543 45.1068 180.839 44.8818 182.005 44.4272L182.506 46.6463C181.144 47.2404 179.535 47.536 177.679 47.536C175.446 47.536 173.693 46.8788 172.418 45.5675C171.145 44.2546 170.508 42.4901 170.508 40.28C170.508 38.1104 171.1 36.3024 172.287 34.8605C173.53 33.3211 175.209 32.5514 177.322 32.5514C179.397 32.5514 180.968 33.3211 182.035 34.8605C182.88 36.0804 183.304 37.5928 183.304 39.3888ZM180.254 38.559C180.276 37.6093 180.066 36.7915 179.633 36.0999C179.079 35.2086 178.227 34.7645 177.085 34.7645C176.039 34.7645 175.186 35.1981 174.538 36.0683C174.005 36.76 173.689 37.5913 173.591 38.556L180.254 38.559Z" fill="white"/>
<path d="M67.8421 20.2419C66.9523 20.2419 66.1825 20.1984 65.5417 20.1249V10.4712C66.4379 10.3328 67.3435 10.2646 68.2503 10.2672C71.9191 10.2672 73.6088 12.0721 73.6088 15.0145C73.6088 18.4084 71.613 20.2419 67.8421 20.2419ZM68.3793 11.505C67.8841 11.505 67.4625 11.535 67.1128 11.607V18.9455C67.3019 18.9755 67.665 18.9891 68.1752 18.9891C70.5791 18.9891 71.9477 17.6207 71.9477 15.058C71.9477 12.7728 70.7097 11.505 68.3793 11.505ZM78.8743 20.3154C76.8065 20.3154 75.4665 18.7715 75.4665 16.6754C75.4665 14.4908 76.835 12.9334 78.9913 12.9334C81.0291 12.9334 82.3991 14.4038 82.3991 16.5599C82.3991 18.7715 80.987 20.3154 78.8743 20.3154ZM78.9343 14.0827C77.7984 14.0827 77.0706 15.145 77.0706 16.6304C77.0706 18.0873 77.8134 19.1496 78.9193 19.1496C80.0252 19.1496 80.768 18.0138 80.768 16.6004C80.768 15.16 80.0402 14.0827 78.9343 14.0827ZM94.1905 13.0789L91.9772 20.1549H90.5351L89.6183 17.082C89.3903 16.3304 89.2005 15.5677 89.0496 14.7969H89.0196C88.904 15.5681 88.6849 16.3408 88.4524 17.082L87.477 20.1549H86.0199L83.9372 13.0789H85.5533L86.3546 16.4428C86.5436 17.2441 86.7027 18.0003 86.8347 18.7145H86.8648C86.9803 18.1188 87.1694 17.3746 87.447 16.4579L88.4524 13.0804H89.7338L90.6957 16.3858C90.9283 17.1871 91.1174 17.9733 91.2644 18.716H91.3064C91.4085 17.9883 91.569 17.2156 91.7866 16.3858L92.6464 13.0804L94.1905 13.0789ZM102.339 20.1549H100.766V16.0918C100.766 14.8404 100.286 14.2132 99.3389 14.2132C98.4071 14.2132 97.7664 15.0145 97.7664 15.9462V20.1549H96.1938V15.1015C96.1938 14.4758 96.1788 13.8051 96.1352 13.0774H97.5188L97.5923 14.1697H97.6358C98.059 13.4135 98.9173 12.9334 99.8791 12.9334C101.365 12.9334 102.34 14.0692 102.34 15.9177L102.339 20.1549ZM106.675 20.1549H105.101V9.83203H106.675V20.1549ZM112.409 20.3154C110.343 20.3154 109.001 18.7715 109.001 16.6754C109.001 14.4908 110.37 12.9334 112.524 12.9334C114.564 12.9334 115.932 14.4038 115.932 16.5599C115.934 18.7715 114.52 20.3154 112.409 20.3154ZM112.467 14.0827C111.331 14.0827 110.604 15.145 110.604 16.6304C110.604 18.0873 111.348 19.1496 112.451 19.1496C113.558 19.1496 114.3 18.0138 114.3 16.6004C114.301 15.16 113.575 14.0827 112.467 14.0827ZM122.133 20.1549L122.018 19.3401H121.976C121.496 19.9958 120.795 20.3154 119.907 20.3154C118.639 20.3154 117.739 19.4272 117.739 18.2328C117.739 16.4864 119.253 15.5831 121.874 15.5831V15.4526C121.874 14.5208 121.381 14.0542 120.405 14.0542C119.708 14.0542 119.095 14.2297 118.557 14.5793L118.237 13.5456C118.891 13.1374 119.708 12.9334 120.666 12.9334C122.515 12.9334 123.448 13.9087 123.448 15.8607V18.4669C123.448 19.1811 123.48 19.7348 123.551 20.1564L122.133 20.1549ZM121.916 16.6304C120.17 16.6304 119.293 17.0535 119.293 18.0573C119.293 18.8 119.745 19.1631 120.372 19.1631C121.172 19.1631 121.916 18.5524 121.916 17.7227V16.6304ZM131.085 20.1549L131.011 19.0191H130.968C130.516 19.8773 129.757 20.3154 128.696 20.3154C126.99 20.3154 125.726 18.815 125.726 16.7039C125.726 14.4908 127.036 12.9319 128.825 12.9319C129.772 12.9319 130.443 13.2515 130.821 13.8936H130.852V9.83203H132.426V18.2478C132.426 18.932 132.443 19.5727 132.485 20.1549H131.085ZM130.852 15.9912C130.852 15.001 130.197 14.1562 129.196 14.1562C128.03 14.1562 127.317 15.19 127.317 16.6454C127.317 18.0723 128.057 19.0491 129.164 19.0491C130.153 19.0491 130.852 18.1893 130.852 17.1706V15.9912ZM142.407 20.3154C140.34 20.3154 139 18.7715 139 16.6754C139 14.4908 140.369 12.9334 142.524 12.9334C144.563 12.9334 145.931 14.4038 145.931 16.5599C145.933 18.7715 144.521 20.3154 142.407 20.3154ZM142.465 14.0827C141.331 14.0827 140.603 15.145 140.603 16.6304C140.603 18.0873 141.346 19.1496 142.45 19.1496C143.558 19.1496 144.299 18.0138 144.299 16.6004C144.302 15.16 143.574 14.0827 142.465 14.0827ZM154.389 20.1549H152.815V16.0918C152.815 14.8404 152.334 14.2132 151.387 14.2132C150.456 14.2132 149.816 15.0145 149.816 15.9462V20.1549H148.242V15.1015C148.242 14.4758 148.227 13.8051 148.184 13.0774H149.567L149.641 14.1697H149.684C150.106 13.4135 150.966 12.9319 151.926 12.9319C153.412 12.9319 154.389 14.0677 154.389 15.9162V20.1549ZM164.969 14.2582H163.239V17.6942C163.239 18.5689 163.542 19.0056 164.154 19.0056C164.432 19.0056 164.664 18.9755 164.852 18.932L164.896 20.1264C164.591 20.2434 164.183 20.3019 163.676 20.3019C162.436 20.3019 161.695 19.6177 161.695 17.8262V14.2582H160.662V13.0789H161.695V11.7826L163.239 11.3159V13.0774H164.969V14.2582ZM173.294 20.1549H171.723V16.1218C171.723 14.8554 171.244 14.2147 170.296 14.2147C169.481 14.2147 168.722 14.7684 168.722 15.8892V20.1549H167.151V9.83203H168.722V14.0827H168.754C169.249 13.3115 169.966 12.9319 170.881 12.9319C172.379 12.9319 173.294 14.0962 173.294 15.9462V20.1549ZM181.823 16.995H177.104C177.134 18.3349 178.021 19.0911 179.334 19.0911C180.032 19.0911 180.674 18.974 181.241 18.7565L181.486 19.8488C180.817 20.1399 180.029 20.2854 179.112 20.2854C176.899 20.2854 175.589 18.887 175.589 16.7189C175.589 14.5493 176.93 12.9184 178.935 12.9184C180.743 12.9184 181.877 14.2582 181.877 16.2823C181.888 16.5212 181.869 16.7604 181.823 16.995ZM180.381 15.8742C180.381 14.7819 179.831 14.0107 178.825 14.0107C177.922 14.0107 177.208 14.7969 177.106 15.8742H180.381Z" fill="white"/>
<defs>
<linearGradient id="paint0_linear_110_56" x1="148.494" y1="60.1593" x2="148.494" y2="-156.23" gradientUnits="userSpaceOnUse">
<stop stop-color="#1A1A1A" stop-opacity="0.1"/>
<stop offset="0.123" stop-color="#212121" stop-opacity="0.151"/>
<stop offset="0.308" stop-color="#353535" stop-opacity="0.227"/>
<stop offset="0.532" stop-color="#575757" stop-opacity="0.318"/>
<stop offset="0.783" stop-color="#858585" stop-opacity="0.421"/>
<stop offset="1" stop-color="#B3B3B3" stop-opacity="0.51"/>
</linearGradient>
</defs>
</svg>
