<svg xmlns="http://www.w3.org/2000/svg" width="254.504" height="255.548" viewBox="0 0 254.504 255.548"><g transform="translate(-999.994 -681.95)"><path d="M-18004.5,1143.5h-209.092a163.169,163.169,0,0,1-11.281-59.886,165.052,165.052,0,0,1,3.332-33.045,162.884,162.884,0,0,1,9.555-30.778,163.911,163.911,0,0,1,15.117-27.852,164.913,164.913,0,0,1,20.021-24.266,165.109,165.109,0,0,1,24.268-20.021,163.935,163.935,0,0,1,27.852-15.117,163.173,163.173,0,0,1,30.779-9.554,165.184,165.184,0,0,1,33.045-3.331,163.437,163.437,0,0,1,56.4,9.96V1143.5h0v0Z" transform="translate(19259 -206)" fill="rgba(255,255,255,0.12)"/><circle cx="84.115" cy="84.115" r="84.115" transform="translate(999.994 681.95)" fill="rgba(255,249,249,0.13)"/></g></svg>