<svg xmlns="http://www.w3.org/2000/svg" xmlns:xlink="http://www.w3.org/1999/xlink" width="598.56" height="788.734" viewBox="0 0 598.56 788.734">
  <defs>
    <clipPath id="clip-path">
      <rect id="Rectangle_1707" data-name="Rectangle 1707" width="29.257" height="29.257" transform="translate(129.411 740.162)" fill="#fff"/>
    </clipPath>
  </defs>
  <g id="Group_48" data-name="Group 48" transform="translate(-373 -227.713)">
    <path id="Path_16680" data-name="Path 16680" d="M.191,10.191a10,10,0,0,1,10-10h578.56a10,10,0,0,1,10,10V778.925a10,10,0,0,1-10,10H10.191a10,10,0,0,1-10-10Z" transform="translate(372.81 227.523)" fill="#0d96f6"/>
    <path id="Subtraction_17" data-name="Subtraction 17" d="M-13132,354h-208.058a163.308,163.308,0,0,1-10.812-58.678,165.239,165.239,0,0,1,3.331-33.045,163.169,163.169,0,0,1,9.554-30.778,163.983,163.983,0,0,1,15.117-27.852,165.2,165.2,0,0,1,20.021-24.266,165.207,165.207,0,0,1,24.266-20.022,164.032,164.032,0,0,1,27.853-15.117,163.134,163.134,0,0,1,30.777-9.554,165.165,165.165,0,0,1,33.044-3.331,163.569,163.569,0,0,1,54.906,9.419V354Z" transform="translate(14103 662)" fill="rgba(255,255,255,0.12)"/>
    <circle id="Ellipse_330" data-name="Ellipse 330" cx="84.115" cy="84.115" r="84.115" transform="translate(717.995 761.663)" fill="rgba(255,249,249,0.13)"/>
    <path id="Path_16681" data-name="Path 16681" d="M61.4,85.465A11.2,11.2,0,0,1,51.449,79.8a11.677,11.677,0,0,1-1.5-5.856,11.826,11.826,0,0,1,1.472-5.888,10.629,10.629,0,0,1,4.032-4.1,11.158,11.158,0,0,1,5.76-1.5,13.934,13.934,0,0,1,3.392.416,9.382,9.382,0,0,1,2.848,1.184l-.864,4.96a11.991,11.991,0,0,0-4.16-.864,5.066,5.066,0,0,0-3.936,1.5,6.008,6.008,0,0,0-1.376,4.256,5.978,5.978,0,0,0,1.44,4.256,5.425,5.425,0,0,0,4.064,1.5,8.546,8.546,0,0,0,1.856-.192,13.472,13.472,0,0,0,2.112-.7l.9,5.056A11.808,11.808,0,0,1,61.4,85.465ZM78,85.209a10.588,10.588,0,0,1-4.8-1.056,7.711,7.711,0,0,1-4.416-7.232,7.806,7.806,0,0,1,4.448-7.2,10.866,10.866,0,0,1,4.8-1.024,10.462,10.462,0,0,1,4.8,1.056,7.68,7.68,0,0,1,3.264,2.88,8.076,8.076,0,0,1-3.3,11.552A10.735,10.735,0,0,1,78,85.209Zm.064-4.8a2.707,2.707,0,0,0,2.144-.96,3.71,3.71,0,0,0,.864-2.528,3.589,3.589,0,0,0-.864-2.5,2.67,2.67,0,0,0-2.144-.992,2.763,2.763,0,0,0-2.176.992,3.675,3.675,0,0,0-.832,2.5,3.8,3.8,0,0,0,.832,2.528A2.8,2.8,0,0,0,78.064,80.409ZM89.647,69.145h6.432v3.264a6.17,6.17,0,0,1,5.888-3.712,5.753,5.753,0,0,1,4.8,2.208,9.37,9.37,0,0,1,1.76,6.048v8h-6.72V76.281a3.239,3.239,0,0,0-.608-2.112,1.952,1.952,0,0,0-1.632-.736,2.608,2.608,0,0,0-1.5.512,3.611,3.611,0,0,0-1.216,1.408,4.8,4.8,0,0,0-.448,2.112v7.488H89.647Zm28.7,16.064a5.859,5.859,0,0,1-4.384-1.6,6.2,6.2,0,0,1-1.568-4.48v-6.24h-2.048V68.921h2.528l2.976-6.048h3.232v6.048h3.712v3.968h-3.712v5.44a1.572,1.572,0,0,0,.512,1.248,2.119,2.119,0,0,0,1.44.448,3.219,3.219,0,0,0,1.568-.384l.256,4.48a7.688,7.688,0,0,1-2.08.8A10.8,10.8,0,0,1,118.342,85.209Zm13.658,0a7.494,7.494,0,0,1-3.9-1.088,8.427,8.427,0,0,1-3.968-7.264,8.075,8.075,0,0,1,1.088-4.16,7.879,7.879,0,0,1,2.912-2.944A7.608,7.608,0,0,1,132,68.7a5.468,5.468,0,0,1,3.072.928,5.672,5.672,0,0,1,2.176,2.784V68.7h6.72V84.953h-6.72V81.977A5.442,5.442,0,0,1,132,85.209Zm2.08-5.056a2.961,2.961,0,0,0,2.176-.9,3.222,3.222,0,0,0,.992-2.176v-.256a3.087,3.087,0,0,0-1.024-2.176,2.994,2.994,0,0,0-2.144-.9,3.142,3.142,0,0,0-2.3.96,3.168,3.168,0,0,0,.032,4.512A3.16,3.16,0,0,0,134.08,80.153Zm21.033,5.056a9.769,9.769,0,0,1-4.544-1.024,7.846,7.846,0,0,1-3.072-2.944,8.435,8.435,0,0,1-1.088-4.288,7.891,7.891,0,0,1,1.152-4.192,8.255,8.255,0,0,1,3.136-2.976,9.033,9.033,0,0,1,4.416-1.088,8.28,8.28,0,0,1,4.9,1.28l-.608,4.256a10.982,10.982,0,0,0-3.008-.544,3.287,3.287,0,0,0-2.432.9,3.137,3.137,0,0,0-.9,2.368,3.245,3.245,0,0,0,.9,2.4,3.2,3.2,0,0,0,2.368.9,10.229,10.229,0,0,0,3.008-.544l.608,4.48a8.763,8.763,0,0,1-2.208.768A11.873,11.873,0,0,1,155.113,85.209Zm14.2,0a5.859,5.859,0,0,1-4.384-1.6,6.2,6.2,0,0,1-1.568-4.48v-6.24h-2.048V68.921h2.528l2.976-6.048h3.232v6.048h3.712v3.968h-3.712v5.44a1.572,1.572,0,0,0,.512,1.248,2.119,2.119,0,0,0,1.44.448,3.219,3.219,0,0,0,1.568-.384l.256,4.48a7.688,7.688,0,0,1-2.08.8A10.8,10.8,0,0,1,169.311,85.209Zm13.347-22.272h7.392V84.953h-7.392Zm10.958,6.208h6.432v3.264a6.17,6.17,0,0,1,5.888-3.712,5.753,5.753,0,0,1,4.8,2.208,9.37,9.37,0,0,1,1.76,6.048v8h-6.72V76.281a3.239,3.239,0,0,0-.608-2.112,1.952,1.952,0,0,0-1.632-.736,2.606,2.606,0,0,0-1.5.512,3.608,3.608,0,0,0-1.216,1.408,4.794,4.794,0,0,0-.448,2.112v7.488h-6.752Zm23.028,3.744h-2.016V68.921h2.016V67.577a7.634,7.634,0,0,1,1.7-5.376,6.294,6.294,0,0,1,4.8-1.824,8.836,8.836,0,0,1,4.576,1.248l-.224,4.32a8.784,8.784,0,0,0-3.1-.736,2.074,2.074,0,0,0-1.472.48A1.651,1.651,0,0,0,222.4,67a4.413,4.413,0,0,0,.544,1.92h4.48v3.968H223.4V84.953h-6.752Zm20.731,12.32a10.588,10.588,0,0,1-4.8-1.056,7.711,7.711,0,0,1-4.416-7.232,7.806,7.806,0,0,1,4.448-7.2,10.866,10.866,0,0,1,4.8-1.024,10.459,10.459,0,0,1,4.8,1.056,7.68,7.68,0,0,1,3.264,2.88,8.076,8.076,0,0,1-3.3,11.552A10.731,10.731,0,0,1,237.375,85.209Zm.064-4.8a2.705,2.705,0,0,0,2.144-.96,3.71,3.71,0,0,0,.864-2.528,3.589,3.589,0,0,0-.864-2.5,2.669,2.669,0,0,0-2.144-.992,2.764,2.764,0,0,0-2.176.992,3.678,3.678,0,0,0-.832,2.5,3.8,3.8,0,0,0,.832,2.528A2.8,2.8,0,0,0,237.439,80.409Zm11.583-11.264h6.752v3.264a5.982,5.982,0,0,1,1.984-2.784,4.935,4.935,0,0,1,2.976-.928l.928,5.216a11.19,11.19,0,0,0-4.48.672,2.133,2.133,0,0,0-1.408,2.048v8.32h-6.752Zm14.281,0h6.432v3.264a7.993,7.993,0,0,1,2.464-2.784,5.91,5.91,0,0,1,3.328-.928,5.558,5.558,0,0,1,3.264.96,5.7,5.7,0,0,1,2.112,2.528,6.522,6.522,0,0,1,5.952-3.488,5.378,5.378,0,0,1,3.232.992,6.317,6.317,0,0,1,2.176,2.88,11.423,11.423,0,0,1,.768,4.384v8h-6.752v-8a4.334,4.334,0,0,0-.576-2.464,1.731,1.731,0,0,0-1.536-.832,2.424,2.424,0,0,0-1.888.928,3.4,3.4,0,0,0-.768,2.24v8.128h-6.688v-8a4.334,4.334,0,0,0-.576-2.464,1.76,1.76,0,0,0-1.568-.832,2.333,2.333,0,0,0-1.856.928,3.4,3.4,0,0,0-.768,2.24v8.128H263.3Zm39.916,16.064a7.492,7.492,0,0,1-3.9-1.088,8.427,8.427,0,0,1-3.968-7.264,8.075,8.075,0,0,1,1.088-4.16,7.872,7.872,0,0,1,2.912-2.944,7.608,7.608,0,0,1,3.872-1.056,5.473,5.473,0,0,1,3.072.928,5.677,5.677,0,0,1,2.176,2.784V68.7h6.72V84.953h-6.72V81.977A5.443,5.443,0,0,1,303.219,85.209Zm2.08-5.056a2.962,2.962,0,0,0,2.176-.9,3.226,3.226,0,0,0,.992-2.176v-.256a3.091,3.091,0,0,0-1.024-2.176,3,3,0,0,0-2.144-.9,3.142,3.142,0,0,0-2.3.96,3.168,3.168,0,0,0,.032,4.512A3.158,3.158,0,0,0,305.3,80.153Zm20.137,5.056a5.859,5.859,0,0,1-4.384-1.6,6.2,6.2,0,0,1-1.568-4.48v-6.24h-2.048V68.921h2.528l2.976-6.048h3.232v6.048h3.712v3.968h-3.712v5.44a1.572,1.572,0,0,0,.512,1.248,2.119,2.119,0,0,0,1.44.448,3.219,3.219,0,0,0,1.568-.384l.256,4.48a7.688,7.688,0,0,1-2.08.8A10.8,10.8,0,0,1,325.436,85.209Zm12.53,0a5.263,5.263,0,0,1-4.192-1.728,6.923,6.923,0,0,1-1.5-4.7V68.921h6.784v9.568a1.634,1.634,0,0,0,.384,1.152,1.5,1.5,0,0,0,1.056.384,2.636,2.636,0,0,0,1.312-.384l.352,4.448a4.984,4.984,0,0,1-1.856.832A9.338,9.338,0,0,1,337.966,85.209Zm-2.3-18.688a3.744,3.744,0,0,1-2.56-.928,3.084,3.084,0,0,1-1.024-2.336,2.91,2.91,0,0,1,1.088-2.3,3.738,3.738,0,0,1,2.5-.928,3.627,3.627,0,0,1,2.528.96,2.983,2.983,0,0,1,0,4.608A3.777,3.777,0,0,1,335.662,66.521Zm16.776,18.688a10.588,10.588,0,0,1-4.8-1.056,7.711,7.711,0,0,1-4.416-7.232,7.806,7.806,0,0,1,4.448-7.2,10.866,10.866,0,0,1,4.8-1.024,10.464,10.464,0,0,1,4.8,1.056,7.68,7.68,0,0,1,3.264,2.88,8.076,8.076,0,0,1-3.3,11.552A10.737,10.737,0,0,1,352.438,85.209Zm.064-4.8a2.707,2.707,0,0,0,2.144-.96,3.71,3.71,0,0,0,.864-2.528,3.589,3.589,0,0,0-.864-2.5,2.67,2.67,0,0,0-2.144-.992,2.763,2.763,0,0,0-2.176.992,3.673,3.673,0,0,0-.832,2.5,3.8,3.8,0,0,0,.832,2.528A2.8,2.8,0,0,0,352.5,80.409Zm11.582-11.264h6.432v3.264A6.171,6.171,0,0,1,376.4,68.7a5.753,5.753,0,0,1,4.8,2.208,9.365,9.365,0,0,1,1.76,6.048v8h-6.72V76.281a3.233,3.233,0,0,0-.608-2.112A1.952,1.952,0,0,0,374,73.433a2.608,2.608,0,0,0-1.5.512,3.616,3.616,0,0,0-1.216,1.408,4.808,4.808,0,0,0-.448,2.112v7.488h-6.752Z" transform="translate(372.81 227.523)" fill="#fff"/>
    <path id="Path_16682" data-name="Path 16682" d="M63.582,457.949a10.069,10.069,0,0,0-10.057,10.057,9.958,9.958,0,0,0,2.026,6.035s.274.361.319.413l7.712,9.1,7.716-9.1c.04-.048.315-.408.315-.408v0a9.954,9.954,0,0,0,2.025-6.032,10.069,10.069,0,0,0-10.057-10.057Zm0,13.715a3.663,3.663,0,1,1,2.585-1.073A3.657,3.657,0,0,1,63.582,471.664Z" transform="translate(372.81 227.523)" fill="#fff"/>
    <path id="Path_16683" data-name="Path 16683" d="M73.335,289.108h2.438a10.737,10.737,0,0,0-10.984-10.971v2.438A8.259,8.259,0,0,1,73.335,289.108Z" transform="translate(372.81 227.523)" fill="#fff"/>
    <path id="Path_16684" data-name="Path 16684" d="M64.8,285.452c2.564,0,3.657,1.093,3.657,3.657H70.9c0-3.932-2.164-6.1-6.1-6.1Zm4.172,6.635a1.22,1.22,0,0,0-1.7.052l-2.917,3a7.7,7.7,0,0,1-5.591-5.59l3-2.919a1.218,1.218,0,0,0,.052-1.7l-4.5-4.953a1.219,1.219,0,0,0-1.7-.106l-2.645,2.268a1.22,1.22,0,0,0-.354.791A17.884,17.884,0,0,0,70.537,301.3c.246,0,.4-.007.438-.009a1.21,1.21,0,0,0,.79-.355l2.268-2.647a1.218,1.218,0,0,0-.1-1.7Z" transform="translate(372.81 227.523)" fill="#fff"/>
    <path id="Path_16685" data-name="Path 16685" d="M118.987,286.5h-3.64v3.58h-1.68V286.5h-3.64v-1.58h3.64v-3.6h1.68v3.6h3.64Zm6.289-7.8v14H123.3v-12.26h-3.16V278.7Zm8.783,14.16a5.332,5.332,0,0,1-2.96-.84,5.787,5.787,0,0,1-2.02-2.48,10.333,10.333,0,0,1,0-7.68,5.651,5.651,0,0,1,2.02-2.46,5.243,5.243,0,0,1,2.96-.86,5.119,5.119,0,0,1,2.92.86,5.615,5.615,0,0,1,2.04,2.46,10.333,10.333,0,0,1,0,7.68,5.748,5.748,0,0,1-2.04,2.48A5.2,5.2,0,0,1,134.059,292.859Zm0-1.78a3.146,3.146,0,0,0,2.68-1.38,8.353,8.353,0,0,0,0-8,3.146,3.146,0,0,0-2.68-1.38,3.215,3.215,0,0,0-2.72,1.38,8.5,8.5,0,0,0,0,8A3.215,3.215,0,0,0,134.059,291.079Zm11.9-12.38v14h-1.98v-12.26h-3.16V278.7Zm12.9,12.26v1.74H148.8v-1.36l5.7-5.5a6.9,6.9,0,0,0,1.4-1.72,3.357,3.357,0,0,0,.36-1.48,2.02,2.02,0,0,0-.78-1.7,3.406,3.406,0,0,0-2.2-.62,4.39,4.39,0,0,0-3.58,1.52l-1.36-1.18a5.467,5.467,0,0,1,2.14-1.56,7.667,7.667,0,0,1,2.98-.56,5.37,5.37,0,0,1,3.5,1.06,3.44,3.44,0,0,1,1.3,2.84,4.838,4.838,0,0,1-.48,2.12,8.451,8.451,0,0,1-1.82,2.28l-4.28,4.12Zm12.376-6.38a4.966,4.966,0,0,1,3.14,1.28,3.646,3.646,0,0,1,1.08,2.72,4.092,4.092,0,0,1-.6,2.18,4.213,4.213,0,0,1-1.8,1.54,6.744,6.744,0,0,1-2.9.56,9.433,9.433,0,0,1-2.88-.44,6.25,6.25,0,0,1-2.26-1.26l.92-1.58a5.406,5.406,0,0,0,1.84,1.1,7.012,7.012,0,0,0,2.38.4,3.9,3.9,0,0,0,2.42-.66,2.151,2.151,0,0,0,.88-1.82,2.115,2.115,0,0,0-.86-1.8,4.342,4.342,0,0,0-2.6-.64h-1.12v-1.4l3.52-4.32h-6.74V278.7h9.24v1.36Zm18.265,4.68h-2.66v3.44H184.9v-3.44h-7.78v-1.4l7.16-9.16h2.16l-6.86,8.84h5.38V284.5h1.88v3.04h2.66Zm5.14-4.98a6.926,6.926,0,0,1,4.4,1.14,3.707,3.707,0,0,1,1.42,3.08,4.27,4.27,0,0,1-.6,2.24,4.03,4.03,0,0,1-1.78,1.56,6.792,6.792,0,0,1-2.92.56,9.371,9.371,0,0,1-2.86-.44,6.467,6.467,0,0,1-2.28-1.26l.92-1.58a5.416,5.416,0,0,0,1.84,1.1,6.959,6.959,0,0,0,2.36.4,3.934,3.934,0,0,0,2.44-.66,2.2,2.2,0,0,0,.88-1.84,2.135,2.135,0,0,0-.96-1.9,6.039,6.039,0,0,0-3.28-.66h-3.18l.74-7.32h7.9v1.74h-6.22l-.38,3.84Zm13.525-.08a5.6,5.6,0,0,1,2.46.52,4,4,0,0,1,2.34,3.72,4.115,4.115,0,0,1-.66,2.32,4.32,4.32,0,0,1-1.78,1.56,5.731,5.731,0,0,1-2.52.54,5.4,5.4,0,0,1-4.36-1.82,7.83,7.83,0,0,1-1.52-5.16,8.821,8.821,0,0,1,.82-3.98,5.785,5.785,0,0,1,2.32-2.5,6.876,6.876,0,0,1,3.48-.86,8.048,8.048,0,0,1,1.92.22,5.126,5.126,0,0,1,1.56.6l-.76,1.56a4.8,4.8,0,0,0-2.68-.66,4.393,4.393,0,0,0-3.42,1.36,5.575,5.575,0,0,0-1.24,3.92,4.629,4.629,0,0,0,.02.5,3.739,3.739,0,0,1,1.64-1.36A5.7,5.7,0,0,1,208.168,284.2Zm-.24,7.04a3.316,3.316,0,0,0,2.24-.74,2.48,2.48,0,0,0,.86-1.98,2.4,2.4,0,0,0-.88-1.96,3.44,3.44,0,0,0-2.32-.74,3.79,3.79,0,0,0-1.68.36,2.928,2.928,0,0,0-1.14.98,2.488,2.488,0,0,0-.4,1.38,2.547,2.547,0,0,0,.38,1.36,2.941,2.941,0,0,0,1.14.98A4.165,4.165,0,0,0,207.928,291.239Zm22.115-12.54v1.36l-5.66,12.64h-2.12l5.54-12.26h-6.4v2.5h-1.92V278.7Zm9.961,6.66a4.009,4.009,0,0,1,1.84,1.32,3.351,3.351,0,0,1,.64,2.06,3.65,3.65,0,0,1-.68,2.2,4.316,4.316,0,0,1-1.94,1.42,8.952,8.952,0,0,1-5.9,0,4.336,4.336,0,0,1-1.92-1.42,3.657,3.657,0,0,1-.68-2.2,3.43,3.43,0,0,1,.62-2.06,4.015,4.015,0,0,1,1.84-1.32,3.511,3.511,0,0,1-1.46-1.22,3.2,3.2,0,0,1-.5-1.8,3.365,3.365,0,0,1,.62-2.02,4.045,4.045,0,0,1,1.78-1.32,7.863,7.863,0,0,1,5.3,0,3.892,3.892,0,0,1,1.78,1.32,3.288,3.288,0,0,1,.64,2.02,3.167,3.167,0,0,1-.52,1.8A3.5,3.5,0,0,1,240,285.359Zm-3.1-5.2a3.638,3.638,0,0,0-2.24.62,2.065,2.065,0,0,0-.02,3.28,4.594,4.594,0,0,0,4.54,0,2.007,2.007,0,0,0-.02-3.28A3.726,3.726,0,0,0,236.9,280.159Zm0,11.08a4.462,4.462,0,0,0,2.62-.68,2.21,2.21,0,0,0,.96-1.88,2.092,2.092,0,0,0-.96-1.82,4.462,4.462,0,0,0-2.62-.68,4.369,4.369,0,0,0-2.6.68,2.106,2.106,0,0,0-.94,1.82,2.227,2.227,0,0,0,.94,1.88A4.369,4.369,0,0,0,236.9,291.239Zm11.951-12.7a5.338,5.338,0,0,1,4.34,1.82,7.762,7.762,0,0,1,1.54,5.16,8.775,8.775,0,0,1-.84,4,5.776,5.776,0,0,1-2.32,2.5,6.889,6.889,0,0,1-3.46.84,8.857,8.857,0,0,1-1.92-.2,5.526,5.526,0,0,1-1.56-.62l.76-1.56a4.906,4.906,0,0,0,2.7.66,4.365,4.365,0,0,0,3.4-1.34,5.652,5.652,0,0,0,1.24-3.94v-.5a3.85,3.85,0,0,1-1.66,1.38,5.913,5.913,0,0,1-2.38.46,5.73,5.73,0,0,1-2.48-.52,4.092,4.092,0,0,1-1.7-1.48,4.5,4.5,0,0,1,.04-4.56,4.352,4.352,0,0,1,1.78-1.54A5.563,5.563,0,0,1,248.855,278.539Zm.18,7.04a3.789,3.789,0,0,0,1.68-.36,2.742,2.742,0,0,0,1.14-.98,2.4,2.4,0,0,0,.42-1.38,2.361,2.361,0,0,0-.4-1.34,2.59,2.59,0,0,0-1.14-.98,3.906,3.906,0,0,0-1.8-.38,3.316,3.316,0,0,0-2.24.74,2.506,2.506,0,0,0-.84,1.98,2.48,2.48,0,0,0,.86,1.98A3.5,3.5,0,0,0,249.035,285.579Z" transform="translate(372.81 227.523)" fill="#fff"/>
    <path id="Path_16686" data-name="Path 16686" d="M75.773,370.786H51.391v19.5H75.773Zm-2.438,4.876-9.752,6.1-9.753-6.1v-2.438l9.753,6.1,9.752-6.1Z" transform="translate(372.81 227.523)" fill="#fff"/>
    <path id="Path_16687" data-name="Path 16687" d="M120.507,368.07v14.84h-1.84v-1.68a4.157,4.157,0,0,1-1.62,1.34,5.027,5.027,0,0,1-2.16.46,5.579,5.579,0,0,1-2.76-.68,4.972,4.972,0,0,1-1.92-1.9,5.816,5.816,0,0,1-.68-2.84,5.7,5.7,0,0,1,.68-2.82,4.958,4.958,0,0,1,1.92-1.9,5.568,5.568,0,0,1,2.76-.68,4.969,4.969,0,0,1,2.1.44,3.989,3.989,0,0,1,1.6,1.26v-5.84Zm-5.46,13.28a3.66,3.66,0,0,0,1.82-.46,3.377,3.377,0,0,0,1.28-1.32,4.09,4.09,0,0,0,.46-1.96,3.969,3.969,0,0,0-.46-1.94,3.2,3.2,0,0,0-1.28-1.32,3.649,3.649,0,0,0-1.82-.46,3.693,3.693,0,0,0-1.84.46,3.382,3.382,0,0,0-1.28,1.32,3.98,3.98,0,0,0-.46,1.94,4.1,4.1,0,0,0,.46,1.96,3.582,3.582,0,0,0,1.28,1.32A3.7,3.7,0,0,0,115.047,381.35Zm18.673-3.68a5.422,5.422,0,0,1-.04.58h-8.6a3.384,3.384,0,0,0,1.22,2.26,4.087,4.087,0,0,0,2.62.84,3.932,3.932,0,0,0,3.06-1.28l1.06,1.24a4.635,4.635,0,0,1-1.8,1.28,6.162,6.162,0,0,1-2.38.44,6.34,6.34,0,0,1-2.98-.68,5.06,5.06,0,0,1-2.02-1.94,5.593,5.593,0,0,1-.7-2.8,5.686,5.686,0,0,1,.68-2.78,4.96,4.96,0,0,1,1.9-1.92,5.4,5.4,0,0,1,2.74-.7,5.189,5.189,0,0,1,2.7.7,4.688,4.688,0,0,1,1.86,1.92A5.811,5.811,0,0,1,133.72,377.67Zm-5.24-3.84a3.355,3.355,0,0,0-2.32.84,3.409,3.409,0,0,0-1.08,2.2h6.8a3.347,3.347,0,0,0-1.1-2.18A3.234,3.234,0,0,0,128.48,373.83Zm21.166-1.62a4.266,4.266,0,0,1,3.16,1.16,4.617,4.617,0,0,1,1.18,3.44v6.1h-1.92v-5.88a3.312,3.312,0,0,0-.72-2.32,2.573,2.573,0,0,0-2.02-.78,3.022,3.022,0,0,0-2.32.92,3.62,3.62,0,0,0-.86,2.6v5.46h-1.92v-5.88a3.312,3.312,0,0,0-.72-2.32,2.573,2.573,0,0,0-2.02-.78,3.022,3.022,0,0,0-2.32.92,3.62,3.62,0,0,0-.86,2.6v5.46h-1.92v-10.6h1.84v1.58a3.65,3.65,0,0,1,1.52-1.24,4.982,4.982,0,0,1,2.14-.44,4.685,4.685,0,0,1,2.2.5,3.469,3.469,0,0,1,1.48,1.46,4.069,4.069,0,0,1,1.66-1.44A5.5,5.5,0,0,1,149.646,372.21Zm12.472,10.82a5.753,5.753,0,0,1-2.84-.7,5.175,5.175,0,0,1-1.98-1.92,5.593,5.593,0,0,1-.7-2.8,5.481,5.481,0,0,1,.7-2.78,4.982,4.982,0,0,1,1.98-1.92,5.742,5.742,0,0,1,2.84-.7,5.634,5.634,0,0,1,2.82.7,4.85,4.85,0,0,1,1.96,1.92,5.365,5.365,0,0,1,.72,2.78,5.474,5.474,0,0,1-.72,2.8,5.033,5.033,0,0,1-1.96,1.92A5.645,5.645,0,0,1,162.118,383.03Zm0-1.68a3.593,3.593,0,0,0,1.82-.46,3.391,3.391,0,0,0,1.28-1.32,4.1,4.1,0,0,0,.46-1.96,3.98,3.98,0,0,0-.46-1.94,3.213,3.213,0,0,0-1.28-1.32,3.583,3.583,0,0,0-1.82-.46,3.69,3.69,0,0,0-1.84.46,3.375,3.375,0,0,0-1.28,1.32,3.969,3.969,0,0,0-.46,1.94,4.09,4.09,0,0,0,.46,1.96,3.574,3.574,0,0,0,1.28,1.32A3.7,3.7,0,0,0,162.118,381.35Zm16.735-12.58a10.156,10.156,0,0,1,4.82,1.12,8.047,8.047,0,0,1,3.3,3.1,8.688,8.688,0,0,1,1.2,4.56,7.38,7.38,0,0,1-.94,4.02,2.955,2.955,0,0,1-2.62,1.46,2.592,2.592,0,0,1-1.6-.48,2.327,2.327,0,0,1-.8-1.42,4.064,4.064,0,0,1-1.58,1.42,5.246,5.246,0,0,1-4.74-.18,4.716,4.716,0,0,1-1.76-1.82,5.638,5.638,0,0,1-.62-2.66,5.471,5.471,0,0,1,.62-2.62,4.532,4.532,0,0,1,1.76-1.82,5.181,5.181,0,0,1,4.62-.22,3.871,3.871,0,0,1,1.56,1.26v-1.62h1.74v7.2a1.62,1.62,0,0,0,.32,1.1,1.079,1.079,0,0,0,.82.34,1.492,1.492,0,0,0,1.36-1.02,6.9,6.9,0,0,0,.5-2.92,7.476,7.476,0,0,0-1-3.9,6.824,6.824,0,0,0-2.82-2.64,8.81,8.81,0,0,0-4.14-.94,8.671,8.671,0,0,0-4.18.98,7,7,0,0,0-2.8,2.74,7.988,7.988,0,0,0-1,4.02,8.17,8.17,0,0,0,.98,4.04,7.051,7.051,0,0,0,2.78,2.74,8.389,8.389,0,0,0,4.14,1,9.516,9.516,0,0,0,2-.22,7.335,7.335,0,0,0,1.86-.66l.44,1.28a7.835,7.835,0,0,1-2.04.7,11.142,11.142,0,0,1-2.26.24,9.945,9.945,0,0,1-4.88-1.18,8.309,8.309,0,0,1-3.3-3.24,9.355,9.355,0,0,1-1.18-4.7,9.241,9.241,0,0,1,1.18-4.68,8.43,8.43,0,0,1,3.34-3.22A10.227,10.227,0,0,1,178.853,368.77Zm-.16,12.7a3.414,3.414,0,0,0,1.74-.44,3.124,3.124,0,0,0,1.22-1.24,3.815,3.815,0,0,0,.46-1.9,3.7,3.7,0,0,0-.46-1.88,2.955,2.955,0,0,0-1.22-1.24,3.4,3.4,0,0,0-1.74-.44,3.252,3.252,0,0,0-2.46.98,3.527,3.527,0,0,0-.94,2.58,3.6,3.6,0,0,0,.94,2.6A3.3,3.3,0,0,0,178.693,381.47Zm22.4-9.16v9.16a5.44,5.44,0,0,1-1.38,4.1,5.7,5.7,0,0,1-4.12,1.34,9.635,9.635,0,0,1-2.86-.42,5.575,5.575,0,0,1-2.2-1.16l.92-1.48a5.322,5.322,0,0,0,1.82,1,6.879,6.879,0,0,0,2.26.38,3.741,3.741,0,0,0,2.74-.88,3.6,3.6,0,0,0,.9-2.68v-.84a4.339,4.339,0,0,1-1.68,1.24,5.626,5.626,0,0,1-2.14.4,5.932,5.932,0,0,1-2.76-.64,4.939,4.939,0,0,1-1.92-1.82,5.15,5.15,0,0,1-.7-2.68,5.043,5.043,0,0,1,.7-2.66,4.747,4.747,0,0,1,1.92-1.82,5.92,5.92,0,0,1,2.76-.64,5.533,5.533,0,0,1,2.22.44,4.121,4.121,0,0,1,1.7,1.3v-1.64Zm-5.52,8.48a3.877,3.877,0,0,0,1.86-.44,3.2,3.2,0,0,0,1.3-1.22,3.434,3.434,0,0,0,.48-1.8,3.211,3.211,0,0,0-1.02-2.48,4.083,4.083,0,0,0-5.26,0,3.211,3.211,0,0,0-1.02,2.48,3.546,3.546,0,0,0,.46,1.8,3.37,3.37,0,0,0,1.3,1.22A4.036,4.036,0,0,0,195.577,380.79Zm22.448-8.58a4.267,4.267,0,0,1,3.16,1.16,4.617,4.617,0,0,1,1.18,3.44v6.1h-1.92v-5.88a3.312,3.312,0,0,0-.72-2.32,2.574,2.574,0,0,0-2.02-.78,3.02,3.02,0,0,0-2.32.92,3.62,3.62,0,0,0-.86,2.6v5.46H212.6v-5.88a3.312,3.312,0,0,0-.72-2.32,2.574,2.574,0,0,0-2.02-.78,3.02,3.02,0,0,0-2.32.92,3.62,3.62,0,0,0-.86,2.6v5.46h-1.92v-10.6h1.84v1.58a3.644,3.644,0,0,1,1.52-1.24,4.982,4.982,0,0,1,2.14-.44,4.685,4.685,0,0,1,2.2.5,3.475,3.475,0,0,1,1.48,1.46,4.062,4.062,0,0,1,1.66-1.44A5.5,5.5,0,0,1,218.025,372.21Zm11.733,0a4.755,4.755,0,0,1,3.36,1.08,4.149,4.149,0,0,1,1.18,3.22v6.4h-1.82v-1.4a3.093,3.093,0,0,1-1.38,1.14,5.283,5.283,0,0,1-2.1.38,4.459,4.459,0,0,1-2.86-.86,2.954,2.954,0,0,1-.04-4.5,4.98,4.98,0,0,1,3.24-.86h3.04v-.38a2.448,2.448,0,0,0-.72-1.9,3.038,3.038,0,0,0-2.12-.66,5.437,5.437,0,0,0-1.84.32,4.591,4.591,0,0,0-1.52.82l-.8-1.44a5.663,5.663,0,0,1,1.96-1A7.991,7.991,0,0,1,229.758,372.21Zm-.44,9.34a3.624,3.624,0,0,0,1.9-.48,2.861,2.861,0,0,0,1.16-1.4v-1.48h-2.96q-2.44,0-2.44,1.64a1.486,1.486,0,0,0,.62,1.26A2.839,2.839,0,0,0,229.318,381.55Zm8.533-9.24h1.92v10.6h-1.92Zm.96-2.04a1.314,1.314,0,0,1-.94-.36,1.256,1.256,0,0,1,0-1.76,1.274,1.274,0,0,1,.94-.38,1.246,1.246,0,0,1,.92.36,1.1,1.1,0,0,1,.38.86,1.264,1.264,0,0,1-1.3,1.28Zm4.626-2.2h1.92v14.84h-1.92Zm6.046,14.96a1.333,1.333,0,0,1-1.36-1.38,1.265,1.265,0,0,1,.4-.96,1.309,1.309,0,0,1,.96-.4,1.274,1.274,0,0,1,.94.38,1.327,1.327,0,0,1,.38.98,1.356,1.356,0,0,1-.4,1A1.254,1.254,0,0,1,249.483,383.03Zm8.457,0a5.951,5.951,0,0,1-2.9-.7,5.175,5.175,0,0,1-1.98-1.92,5.474,5.474,0,0,1-.72-2.8,5.365,5.365,0,0,1,.72-2.78,4.982,4.982,0,0,1,1.98-1.92,5.939,5.939,0,0,1,2.9-.7,5.484,5.484,0,0,1,2.56.58,4.114,4.114,0,0,1,1.76,1.68l-1.46.94a3.264,3.264,0,0,0-1.24-1.14,3.531,3.531,0,0,0-1.64-.38,3.843,3.843,0,0,0-1.88.46,3.336,3.336,0,0,0-1.3,1.32,3.969,3.969,0,0,0-.46,1.94,4.134,4.134,0,0,0,.46,1.98,3.383,3.383,0,0,0,1.3,1.3,3.854,3.854,0,0,0,1.88.46,3.543,3.543,0,0,0,1.64-.38,3.279,3.279,0,0,0,1.24-1.14l1.46.92a4.249,4.249,0,0,1-1.76,1.7A5.5,5.5,0,0,1,257.94,383.03Zm11.189,0a5.756,5.756,0,0,1-2.84-.7,5.175,5.175,0,0,1-1.98-1.92,5.6,5.6,0,0,1-.7-2.8,5.491,5.491,0,0,1,.7-2.78,4.982,4.982,0,0,1,1.98-1.92,5.745,5.745,0,0,1,2.84-.7,5.629,5.629,0,0,1,2.82.7,4.844,4.844,0,0,1,1.96,1.92,5.365,5.365,0,0,1,.72,2.78,5.474,5.474,0,0,1-.72,2.8,5.026,5.026,0,0,1-1.96,1.92A5.639,5.639,0,0,1,269.129,383.03Zm0-1.68a3.591,3.591,0,0,0,1.82-.46,3.377,3.377,0,0,0,1.28-1.32,4.09,4.09,0,0,0,.46-1.96,3.969,3.969,0,0,0-.46-1.94,3.2,3.2,0,0,0-1.28-1.32,3.581,3.581,0,0,0-1.82-.46,3.693,3.693,0,0,0-1.84.46,3.382,3.382,0,0,0-1.28,1.32,3.98,3.98,0,0,0-.46,1.94,4.1,4.1,0,0,0,.46,1.96,3.582,3.582,0,0,0,1.28,1.32A3.7,3.7,0,0,0,269.129,381.35Zm21.416-9.14a4.269,4.269,0,0,1,3.16,1.16,4.621,4.621,0,0,1,1.18,3.44v6.1h-1.92v-5.88a3.312,3.312,0,0,0-.72-2.32,2.574,2.574,0,0,0-2.02-.78,3.019,3.019,0,0,0-2.32.92,3.615,3.615,0,0,0-.86,2.6v5.46h-1.92v-5.88a3.312,3.312,0,0,0-.72-2.32,2.574,2.574,0,0,0-2.02-.78,3.019,3.019,0,0,0-2.32.92,3.615,3.615,0,0,0-.86,2.6v5.46h-1.92v-10.6h1.84v1.58a3.638,3.638,0,0,1,1.52-1.24,4.979,4.979,0,0,1,2.14-.44,4.687,4.687,0,0,1,2.2.5,3.475,3.475,0,0,1,1.48,1.46,4.062,4.062,0,0,1,1.66-1.44A5.5,5.5,0,0,1,290.545,372.21Z" transform="translate(372.81 227.523)" fill="#fff"/>
    <path id="Path_16688" data-name="Path 16688" d="M114.3,459v14h-1.98V460.74h-3.16V459Zm8.422,5.88a4.964,4.964,0,0,1,3.14,1.28,3.646,3.646,0,0,1,1.08,2.72,4.092,4.092,0,0,1-.6,2.18,4.213,4.213,0,0,1-1.8,1.54,6.738,6.738,0,0,1-2.9.56,9.433,9.433,0,0,1-2.88-.44,6.258,6.258,0,0,1-2.26-1.26l.92-1.58a5.416,5.416,0,0,0,1.84,1.1,7.016,7.016,0,0,0,2.38.4,3.9,3.9,0,0,0,2.42-.66,2.149,2.149,0,0,0,.88-1.82,2.113,2.113,0,0,0-.86-1.8,4.34,4.34,0,0,0-2.6-.64h-1.12v-1.4l3.52-4.32h-6.74V459h9.24v1.36Zm15.828,6.38V473H128.49v-1.36l5.7-5.5a6.925,6.925,0,0,0,1.4-1.72,3.357,3.357,0,0,0,.36-1.48,2.02,2.02,0,0,0-.78-1.7,3.408,3.408,0,0,0-2.2-.62,4.389,4.389,0,0,0-3.58,1.52l-1.36-1.18a5.467,5.467,0,0,1,2.14-1.56,7.663,7.663,0,0,1,2.98-.56,5.372,5.372,0,0,1,3.5,1.06,3.44,3.44,0,0,1,1.3,2.84,4.838,4.838,0,0,1-.48,2.12,8.472,8.472,0,0,1-1.82,2.28l-4.28,4.12ZM146.705,459h5.9a8.524,8.524,0,0,1,3.94.88,6.373,6.373,0,0,1,2.66,2.48,6.87,6.87,0,0,1,.96,3.64,6.976,6.976,0,0,1-.96,3.66,6.418,6.418,0,0,1-2.66,2.46,8.524,8.524,0,0,1-3.94.88h-5.9Zm5.78,12.26a6.413,6.413,0,0,0,2.98-.66,4.77,4.77,0,0,0,2-1.84,5.373,5.373,0,0,0,.7-2.76,5.266,5.266,0,0,0-.7-2.74,4.733,4.733,0,0,0-2-1.86,6.413,6.413,0,0,0-2.98-.66h-3.78v10.52Zm14.324-8.96a4.755,4.755,0,0,1,3.36,1.08,4.149,4.149,0,0,1,1.18,3.22V473h-1.82v-1.4a3.093,3.093,0,0,1-1.38,1.14,5.283,5.283,0,0,1-2.1.38,4.459,4.459,0,0,1-2.86-.86,2.954,2.954,0,0,1-.04-4.5,4.986,4.986,0,0,1,3.24-.86h3.04v-.38a2.448,2.448,0,0,0-.72-1.9,3.038,3.038,0,0,0-2.12-.66,5.461,5.461,0,0,0-1.84.32,4.591,4.591,0,0,0-1.52.82l-.8-1.44a5.68,5.68,0,0,1,1.96-1A7.992,7.992,0,0,1,166.809,462.3Zm-.44,9.34a3.624,3.624,0,0,0,1.9-.48,2.857,2.857,0,0,0,1.16-1.4v-1.48h-2.96q-2.44,0-2.44,1.64a1.486,1.486,0,0,0,.62,1.26A2.832,2.832,0,0,0,166.369,471.64Zm10.373-7.46a3.278,3.278,0,0,1,1.48-1.4,5.371,5.371,0,0,1,2.38-.48v1.86a3.824,3.824,0,0,0-.44-.02,3.244,3.244,0,0,0-2.46.94,3.668,3.668,0,0,0-.88,2.64V473H174.9V462.4h1.84Zm12.616,8.2a2.982,2.982,0,0,1-1.04.56,4.566,4.566,0,0,1-1.28.18,3.4,3.4,0,0,1-2.48-.86,3.282,3.282,0,0,1-.88-2.46v-5.82h-1.8V462.4h1.8v-2.32h1.92v2.32h3.04v1.58H185.6v5.74a1.892,1.892,0,0,0,.42,1.32,1.634,1.634,0,0,0,1.24.46,2.314,2.314,0,0,0,1.5-.5Zm15.581-10.08a4.27,4.27,0,0,1,3.16,1.16,4.617,4.617,0,0,1,1.18,3.44V473h-1.92v-5.88a3.312,3.312,0,0,0-.72-2.32,2.573,2.573,0,0,0-2.02-.78,3.026,3.026,0,0,0-2.32.92,3.622,3.622,0,0,0-.86,2.6V473h-1.92v-5.88a3.312,3.312,0,0,0-.72-2.32,2.573,2.573,0,0,0-2.02-.78,3.026,3.026,0,0,0-2.32.92,3.622,3.622,0,0,0-.86,2.6V473h-1.92V462.4h1.84v1.58a3.65,3.65,0,0,1,1.52-1.24,5,5,0,0,1,2.14-.44,4.7,4.7,0,0,1,2.2.5,3.469,3.469,0,0,1,1.48,1.46,4.084,4.084,0,0,1,1.66-1.44A5.5,5.5,0,0,1,204.939,462.3Zm12.472,10.82a5.743,5.743,0,0,1-2.84-.7,5.175,5.175,0,0,1-1.98-1.92,5.593,5.593,0,0,1-.7-2.8,5.481,5.481,0,0,1,.7-2.78,4.982,4.982,0,0,1,1.98-1.92,5.742,5.742,0,0,1,2.84-.7,5.634,5.634,0,0,1,2.82.7,4.85,4.85,0,0,1,1.96,1.92,5.365,5.365,0,0,1,.72,2.78,5.474,5.474,0,0,1-.72,2.8,5.033,5.033,0,0,1-1.96,1.92A5.634,5.634,0,0,1,217.411,473.12Zm0-1.68a3.583,3.583,0,0,0,1.82-.46,3.391,3.391,0,0,0,1.28-1.32,4.1,4.1,0,0,0,.46-1.96,3.982,3.982,0,0,0-.46-1.94,3.226,3.226,0,0,0-1.28-1.32,3.583,3.583,0,0,0-1.82-.46,3.69,3.69,0,0,0-1.84.46,3.389,3.389,0,0,0-1.28,1.32,3.971,3.971,0,0,0-.46,1.94,4.087,4.087,0,0,0,.46,1.96,3.574,3.574,0,0,0,1.28,1.32A3.69,3.69,0,0,0,217.411,471.44Zm18.035-9.04V473h-1.82v-1.6a3.924,3.924,0,0,1-1.54,1.28,4.8,4.8,0,0,1-2.06.44,4.65,4.65,0,0,1-3.34-1.16,4.6,4.6,0,0,1-1.22-3.46v-6.1h1.92v5.88a3.33,3.33,0,0,0,.74,2.34,2.783,2.783,0,0,0,2.12.78,3.166,3.166,0,0,0,2.4-.92,3.609,3.609,0,0,0,.88-2.6V462.4Zm9.615,9.98a2.973,2.973,0,0,1-1.04.56,4.566,4.566,0,0,1-1.28.18,3.4,3.4,0,0,1-2.48-.86,3.286,3.286,0,0,1-.88-2.46v-5.82h-1.8V462.4h1.8v-2.32h1.92v2.32h3.04v1.58H241.3v5.74a1.892,1.892,0,0,0,.42,1.32,1.635,1.635,0,0,0,1.24.46,2.314,2.314,0,0,0,1.5-.5Zm7.982-10.08a4.324,4.324,0,0,1,3.2,1.18,4.544,4.544,0,0,1,1.2,3.42V473h-1.92v-5.88a3.255,3.255,0,0,0-.74-2.32,2.784,2.784,0,0,0-2.12-.78,3.284,3.284,0,0,0-2.46.92,3.521,3.521,0,0,0-.9,2.6V473h-1.92V458.16h1.92v5.74a3.974,3.974,0,0,1,1.56-1.18A5.478,5.478,0,0,1,253.043,462.3Zm17.684,10.86a9.86,9.86,0,0,1-3.06-.48,6.372,6.372,0,0,1-2.3-1.28l.74-1.56a6.272,6.272,0,0,0,2.04,1.18,7.781,7.781,0,0,0,2.58.44,4.689,4.689,0,0,0,2.6-.58,1.844,1.844,0,0,0,.86-1.58,1.5,1.5,0,0,0-.48-1.16,2.97,2.97,0,0,0-1.16-.7q-.68-.24-1.94-.54a20.661,20.661,0,0,1-2.56-.76,4.36,4.36,0,0,1-1.66-1.16,3.2,3.2,0,0,1-.68-2.14,3.646,3.646,0,0,1,.58-2.02,4.122,4.122,0,0,1,1.8-1.44,7.259,7.259,0,0,1,2.98-.54,9.442,9.442,0,0,1,2.44.32,6.48,6.48,0,0,1,2.06.92l-.66,1.6a7.02,7.02,0,0,0-1.88-.84,6.8,6.8,0,0,0-1.96-.3,4.37,4.37,0,0,0-2.56.62,1.905,1.905,0,0,0-.84,1.6,1.563,1.563,0,0,0,.48,1.18,3.55,3.55,0,0,0,1.18.7q.72.24,1.94.52a19.562,19.562,0,0,1,2.54.76,4.188,4.188,0,0,1,1.64,1.16,3.026,3.026,0,0,1,.7,2.1,3.623,3.623,0,0,1-.6,2.02,4.11,4.11,0,0,1-1.82,1.44A7.648,7.648,0,0,1,270.727,473.16Zm14.022-.78a2.982,2.982,0,0,1-1.04.56,4.571,4.571,0,0,1-1.28.18,3.4,3.4,0,0,1-2.48-.86,3.282,3.282,0,0,1-.88-2.46v-5.82h-1.8V462.4h1.8v-2.32h1.92v2.32h3.04v1.58h-3.04v5.74a1.892,1.892,0,0,0,.42,1.32,1.632,1.632,0,0,0,1.24.46,2.318,2.318,0,0,0,1.5-.5Zm4.161-8.2a3.278,3.278,0,0,1,1.48-1.4,5.371,5.371,0,0,1,2.38-.48v1.86a3.823,3.823,0,0,0-.44-.02,3.244,3.244,0,0,0-2.46.94,3.668,3.668,0,0,0-.88,2.64V473h-1.92V462.4h1.84Zm15.709,3.58a5.682,5.682,0,0,1-.04.58h-8.6a3.378,3.378,0,0,0,1.22,2.26,4.085,4.085,0,0,0,2.62.84,3.935,3.935,0,0,0,3.06-1.28l1.06,1.24a4.625,4.625,0,0,1-1.8,1.28,6.162,6.162,0,0,1-2.38.44,6.337,6.337,0,0,1-2.98-.68,5.053,5.053,0,0,1-2.02-1.94,5.593,5.593,0,0,1-.7-2.8,5.678,5.678,0,0,1,.68-2.78,4.953,4.953,0,0,1,1.9-1.92,5.4,5.4,0,0,1,2.74-.7,5.189,5.189,0,0,1,2.7.7,4.689,4.689,0,0,1,1.86,1.92A5.813,5.813,0,0,1,304.619,467.76Zm-5.24-3.84a3.354,3.354,0,0,0-2.32.84,3.4,3.4,0,0,0-1.08,2.2h6.8a3.354,3.354,0,0,0-1.1-2.18A3.24,3.24,0,0,0,299.379,463.92Zm17.486,3.84a5.413,5.413,0,0,1-.04.58h-8.6a3.382,3.382,0,0,0,1.22,2.26,4.087,4.087,0,0,0,2.62.84,3.932,3.932,0,0,0,3.06-1.28l1.06,1.24a4.625,4.625,0,0,1-1.8,1.28,6.162,6.162,0,0,1-2.38.44,6.34,6.34,0,0,1-2.98-.68,5.053,5.053,0,0,1-2.02-1.94,5.593,5.593,0,0,1-.7-2.8,5.689,5.689,0,0,1,.68-2.78,4.96,4.96,0,0,1,1.9-1.92,5.4,5.4,0,0,1,2.74-.7,5.189,5.189,0,0,1,2.7.7,4.689,4.689,0,0,1,1.86,1.92A5.813,5.813,0,0,1,316.865,467.76Zm-5.24-3.84a3.356,3.356,0,0,0-2.32.84,3.409,3.409,0,0,0-1.08,2.2h6.8a3.349,3.349,0,0,0-1.1-2.18A3.238,3.238,0,0,0,311.625,463.92Zm13.866,8.46a2.981,2.981,0,0,1-1.04.56,4.566,4.566,0,0,1-1.28.18,3.4,3.4,0,0,1-2.48-.86,3.282,3.282,0,0,1-.88-2.46v-5.82h-1.8V462.4h1.8v-2.32h1.92v2.32h3.04v1.58h-3.04v5.74a1.892,1.892,0,0,0,.42,1.32,1.634,1.634,0,0,0,1.24.46,2.314,2.314,0,0,0,1.5-.5ZM120.52,485.74a3.567,3.567,0,0,1,1.92,1.24,3.485,3.485,0,0,1,.7,2.24,3.227,3.227,0,0,1-1.38,2.8,6.771,6.771,0,0,1-3.98.98H111.1V479h6.28a6.145,6.145,0,0,1,3.7.96,3.106,3.106,0,0,1,1.32,2.66,3.406,3.406,0,0,1-.52,1.9A3.257,3.257,0,0,1,120.52,485.74Zm-7.42-5.12v4.48h4.1a4.173,4.173,0,0,0,2.36-.56,1.916,1.916,0,0,0,.84-1.68,1.865,1.865,0,0,0-.84-1.66,4.055,4.055,0,0,0-2.36-.58Zm4.6,10.76a4.739,4.739,0,0,0,2.56-.56,1.949,1.949,0,0,0,.86-1.76q0-2.34-3.42-2.34h-4.6v4.66Zm12.8,1.74a5.743,5.743,0,0,1-2.84-.7,5.175,5.175,0,0,1-1.98-1.92,5.593,5.593,0,0,1-.7-2.8,5.481,5.481,0,0,1,.7-2.78,4.982,4.982,0,0,1,1.98-1.92,5.742,5.742,0,0,1,2.84-.7,5.634,5.634,0,0,1,2.82.7,4.85,4.85,0,0,1,1.96,1.92,5.365,5.365,0,0,1,.72,2.78,5.474,5.474,0,0,1-.72,2.8,5.033,5.033,0,0,1-1.96,1.92A5.634,5.634,0,0,1,130.5,493.12Zm0-1.68a3.583,3.583,0,0,0,1.82-.46,3.391,3.391,0,0,0,1.28-1.32,4.1,4.1,0,0,0,.46-1.96,3.982,3.982,0,0,0-.46-1.94,3.226,3.226,0,0,0-1.28-1.32,3.583,3.583,0,0,0-1.82-.46,3.69,3.69,0,0,0-1.84.46,3.389,3.389,0,0,0-1.28,1.32,3.971,3.971,0,0,0-.46,1.94,4.087,4.087,0,0,0,.46,1.96,3.574,3.574,0,0,0,1.28,1.32A3.69,3.69,0,0,0,130.5,491.44Zm11.2,1.68a9.113,9.113,0,0,1-2.5-.34,5.611,5.611,0,0,1-1.88-.9l.8-1.52a5.751,5.751,0,0,0,1.7.8,7,7,0,0,0,2.02.3q2.52,0,2.52-1.44a.932.932,0,0,0-.34-.76,2.054,2.054,0,0,0-.86-.4q-.5-.139-1.44-.3a14.6,14.6,0,0,1-2.1-.46,3.232,3.232,0,0,1-1.38-.88,2.447,2.447,0,0,1-.58-1.74,2.692,2.692,0,0,1,1.2-2.3,5.326,5.326,0,0,1,3.22-.88,8.887,8.887,0,0,1,2.12.26,5.694,5.694,0,0,1,1.74.7l-.82,1.52a5.515,5.515,0,0,0-3.06-.84,3.536,3.536,0,0,0-1.86.4,1.207,1.207,0,0,0-.64,1.06,1.01,1.01,0,0,0,.36.82,2.272,2.272,0,0,0,.88.44q.54.139,1.5.32a14.613,14.613,0,0,1,2.06.48,3.009,3.009,0,0,1,1.36.84,2.369,2.369,0,0,1,.56,1.68,2.667,2.667,0,0,1-1.24,2.3A5.813,5.813,0,0,1,141.692,493.12Zm12.94-.74a2.982,2.982,0,0,1-1.04.56,4.571,4.571,0,0,1-1.28.18,3.4,3.4,0,0,1-2.48-.86,3.282,3.282,0,0,1-.88-2.46v-5.82h-1.8V482.4h1.8v-2.32h1.92v2.32h3.04v1.58h-3.04v5.74a1.892,1.892,0,0,0,.42,1.32,1.632,1.632,0,0,0,1.24.46,2.318,2.318,0,0,0,1.5-.5Zm6.509.74a5.746,5.746,0,0,1-2.84-.7,5.175,5.175,0,0,1-1.98-1.92,5.6,5.6,0,0,1-.7-2.8,5.491,5.491,0,0,1,.7-2.78A4.982,4.982,0,0,1,158.3,483a5.745,5.745,0,0,1,2.84-.7,5.629,5.629,0,0,1,2.82.7,4.844,4.844,0,0,1,1.96,1.92,5.365,5.365,0,0,1,.72,2.78,5.474,5.474,0,0,1-.72,2.8,5.026,5.026,0,0,1-1.96,1.92A5.629,5.629,0,0,1,161.141,493.12Zm0-1.68a3.581,3.581,0,0,0,1.82-.46,3.377,3.377,0,0,0,1.28-1.32,4.087,4.087,0,0,0,.46-1.96,3.971,3.971,0,0,0-.46-1.94,3.213,3.213,0,0,0-1.28-1.32,3.581,3.581,0,0,0-1.82-.46,3.693,3.693,0,0,0-1.84.46,3.4,3.4,0,0,0-1.28,1.32,3.982,3.982,0,0,0-.46,1.94,4.1,4.1,0,0,0,.46,1.96,3.582,3.582,0,0,0,1.28,1.32A3.693,3.693,0,0,0,161.141,491.44Zm13.816-9.14a4.324,4.324,0,0,1,3.2,1.18,4.544,4.544,0,0,1,1.2,3.42V493h-1.92v-5.88a3.255,3.255,0,0,0-.74-2.32,2.784,2.784,0,0,0-2.12-.78,3.284,3.284,0,0,0-2.46.92,3.521,3.521,0,0,0-.9,2.6V493H169.3V482.4h1.84V484a3.73,3.73,0,0,1,1.56-1.26A5.56,5.56,0,0,1,174.957,482.3Zm8.433,8.08a1.182,1.182,0,0,1,.92.4,1.3,1.3,0,0,1,.38.96,2.116,2.116,0,0,1-.08.58,8.359,8.359,0,0,1-.26.86l-.94,2.78h-1.26l.74-2.98a1.337,1.337,0,0,1-.62-.46,1.4,1.4,0,0,1-.22-.78,1.327,1.327,0,0,1,.38-.98A1.3,1.3,0,0,1,183.39,490.38ZM206.072,493l-.02-10.2-5.06,8.5h-.92l-5.06-8.44V493h-1.92V479h1.64l5.84,9.84,5.76-9.84h1.64l.02,14Zm9.7-10.7a4.759,4.759,0,0,1,3.36,1.08,4.152,4.152,0,0,1,1.18,3.22V493h-1.82v-1.4a3.093,3.093,0,0,1-1.38,1.14,5.283,5.283,0,0,1-2.1.38,4.459,4.459,0,0,1-2.86-.86,2.954,2.954,0,0,1-.04-4.5,4.986,4.986,0,0,1,3.24-.86h3.04v-.38a2.448,2.448,0,0,0-.72-1.9,3.038,3.038,0,0,0-2.12-.66,5.461,5.461,0,0,0-1.84.32,4.591,4.591,0,0,0-1.52.82l-.8-1.44a5.671,5.671,0,0,1,1.96-1A7.988,7.988,0,0,1,215.774,482.3Zm-.44,9.34a3.626,3.626,0,0,0,1.9-.48,2.857,2.857,0,0,0,1.16-1.4v-1.48h-2.96q-2.44,0-2.44,1.64a1.483,1.483,0,0,0,.62,1.26A2.83,2.83,0,0,0,215.334,491.64Zm11.573,1.48a9.113,9.113,0,0,1-2.5-.34,5.611,5.611,0,0,1-1.88-.9l.8-1.52a5.751,5.751,0,0,0,1.7.8,7,7,0,0,0,2.02.3q2.52,0,2.52-1.44a.932.932,0,0,0-.34-.76,2.054,2.054,0,0,0-.86-.4q-.5-.139-1.44-.3a14.6,14.6,0,0,1-2.1-.46,3.232,3.232,0,0,1-1.38-.88,2.447,2.447,0,0,1-.58-1.74,2.692,2.692,0,0,1,1.2-2.3,5.326,5.326,0,0,1,3.22-.88,8.887,8.887,0,0,1,2.12.26,5.694,5.694,0,0,1,1.74.7l-.82,1.52a5.515,5.515,0,0,0-3.06-.84,3.536,3.536,0,0,0-1.86.4,1.207,1.207,0,0,0-.64,1.06,1.01,1.01,0,0,0,.36.82,2.272,2.272,0,0,0,.88.44q.54.139,1.5.32a14.613,14.613,0,0,1,2.06.48,3.009,3.009,0,0,1,1.36.84,2.369,2.369,0,0,1,.56,1.68,2.667,2.667,0,0,1-1.24,2.3A5.812,5.812,0,0,1,226.907,493.12Zm10.019,0a9.118,9.118,0,0,1-2.5-.34,5.621,5.621,0,0,1-1.88-.9l.8-1.52a5.763,5.763,0,0,0,1.7.8,7,7,0,0,0,2.02.3q2.52,0,2.52-1.44a.932.932,0,0,0-.34-.76,2.048,2.048,0,0,0-.86-.4q-.5-.139-1.44-.3a14.6,14.6,0,0,1-2.1-.46,3.232,3.232,0,0,1-1.38-.88,2.451,2.451,0,0,1-.58-1.74,2.692,2.692,0,0,1,1.2-2.3,5.329,5.329,0,0,1,3.22-.88,8.881,8.881,0,0,1,2.12.26,5.694,5.694,0,0,1,1.74.7l-.82,1.52a5.51,5.51,0,0,0-3.06-.84,3.536,3.536,0,0,0-1.86.4,1.209,1.209,0,0,0-.64,1.06,1.01,1.01,0,0,0,.36.82,2.279,2.279,0,0,0,.88.44q.54.139,1.5.32a14.579,14.579,0,0,1,2.06.48,3,3,0,0,1,1.36.84,2.365,2.365,0,0,1,.56,1.68,2.667,2.667,0,0,1-1.24,2.3A5.81,5.81,0,0,1,236.926,493.12Zm10.84-10.82a4.755,4.755,0,0,1,3.36,1.08,4.149,4.149,0,0,1,1.18,3.22V493h-1.82v-1.4a3.093,3.093,0,0,1-1.38,1.14,5.283,5.283,0,0,1-2.1.38,4.459,4.459,0,0,1-2.86-.86,2.954,2.954,0,0,1-.04-4.5,4.986,4.986,0,0,1,3.24-.86h3.04v-.38a2.448,2.448,0,0,0-.72-1.9,3.038,3.038,0,0,0-2.12-.66,5.461,5.461,0,0,0-1.84.32,4.591,4.591,0,0,0-1.52.82l-.8-1.44a5.68,5.68,0,0,1,1.96-1A7.992,7.992,0,0,1,247.766,482.3Zm-.44,9.34a3.624,3.624,0,0,0,1.9-.48,2.857,2.857,0,0,0,1.16-1.4v-1.48h-2.96q-2.44,0-2.44,1.64a1.486,1.486,0,0,0,.62,1.26A2.832,2.832,0,0,0,247.326,491.64Zm13.212,1.48a5.94,5.94,0,0,1-2.9-.7,5.175,5.175,0,0,1-1.98-1.92,5.474,5.474,0,0,1-.72-2.8,5.365,5.365,0,0,1,.72-2.78,4.982,4.982,0,0,1,1.98-1.92,5.939,5.939,0,0,1,2.9-.7,5.484,5.484,0,0,1,2.56.58,4.126,4.126,0,0,1,1.76,1.68l-1.46.94a3.264,3.264,0,0,0-1.24-1.14,3.543,3.543,0,0,0-1.64-.38,3.843,3.843,0,0,0-1.88.46,3.349,3.349,0,0,0-1.3,1.32,3.971,3.971,0,0,0-.46,1.94,4.128,4.128,0,0,0,.46,1.98,3.383,3.383,0,0,0,1.3,1.3,3.844,3.844,0,0,0,1.88.46,3.543,3.543,0,0,0,1.64-.38,3.264,3.264,0,0,0,1.24-1.14l1.46.92a4.249,4.249,0,0,1-1.76,1.7A5.484,5.484,0,0,1,260.538,493.12Zm12.329-10.82a4.324,4.324,0,0,1,3.2,1.18,4.543,4.543,0,0,1,1.2,3.42V493h-1.92v-5.88a3.255,3.255,0,0,0-.74-2.32,2.784,2.784,0,0,0-2.12-.78,3.284,3.284,0,0,0-2.46.92,3.521,3.521,0,0,0-.9,2.6V493h-1.92V478.16h1.92v5.74a3.974,3.974,0,0,1,1.56-1.18A5.478,5.478,0,0,1,272.867,482.3Zm17.833.1V493h-1.82v-1.6a3.924,3.924,0,0,1-1.54,1.28,4.8,4.8,0,0,1-2.06.44,4.65,4.65,0,0,1-3.34-1.16,4.6,4.6,0,0,1-1.22-3.46v-6.1h1.92v5.88a3.33,3.33,0,0,0,.74,2.34,2.783,2.783,0,0,0,2.12.78,3.166,3.166,0,0,0,2.4-.92,3.609,3.609,0,0,0,.88-2.6V482.4Zm6.695,10.72a9.113,9.113,0,0,1-2.5-.34,5.611,5.611,0,0,1-1.88-.9l.8-1.52a5.751,5.751,0,0,0,1.7.8,7,7,0,0,0,2.02.3q2.52,0,2.52-1.44a.932.932,0,0,0-.34-.76,2.054,2.054,0,0,0-.86-.4q-.5-.139-1.44-.3a14.6,14.6,0,0,1-2.1-.46,3.232,3.232,0,0,1-1.38-.88,2.447,2.447,0,0,1-.58-1.74,2.692,2.692,0,0,1,1.2-2.3,5.327,5.327,0,0,1,3.22-.88,8.887,8.887,0,0,1,2.12.26,5.7,5.7,0,0,1,1.74.7l-.82,1.52a5.515,5.515,0,0,0-3.06-.84,3.536,3.536,0,0,0-1.86.4,1.207,1.207,0,0,0-.64,1.06,1.01,1.01,0,0,0,.36.82,2.272,2.272,0,0,0,.88.44q.54.139,1.5.32a14.613,14.613,0,0,1,2.06.48,3.009,3.009,0,0,1,1.36.84,2.369,2.369,0,0,1,.56,1.68,2.667,2.667,0,0,1-1.24,2.3A5.812,5.812,0,0,1,297.395,493.12Zm16.56-5.36a5.682,5.682,0,0,1-.04.58h-8.6a3.378,3.378,0,0,0,1.22,2.26,4.085,4.085,0,0,0,2.62.84,3.935,3.935,0,0,0,3.06-1.28l1.06,1.24a4.625,4.625,0,0,1-1.8,1.28,6.162,6.162,0,0,1-2.38.44,6.337,6.337,0,0,1-2.98-.68,5.053,5.053,0,0,1-2.02-1.94,5.593,5.593,0,0,1-.7-2.8,5.678,5.678,0,0,1,.68-2.78,4.953,4.953,0,0,1,1.9-1.92,5.4,5.4,0,0,1,2.74-.7,5.189,5.189,0,0,1,2.7.7,4.689,4.689,0,0,1,1.86,1.92A5.813,5.813,0,0,1,313.955,487.76Zm-5.24-3.84a3.354,3.354,0,0,0-2.32.84,3.4,3.4,0,0,0-1.08,2.2h6.8a3.354,3.354,0,0,0-1.1-2.18A3.24,3.24,0,0,0,308.715,483.92Zm13.866,8.46a2.981,2.981,0,0,1-1.04.56,4.571,4.571,0,0,1-1.28.18,3.4,3.4,0,0,1-2.48-.86,3.282,3.282,0,0,1-.88-2.46v-5.82h-1.8V482.4h1.8v-2.32h1.92v2.32h3.04v1.58h-3.04v5.74a1.892,1.892,0,0,0,.42,1.32,1.632,1.632,0,0,0,1.24.46,2.318,2.318,0,0,0,1.5-.5Zm8.027,0a2.982,2.982,0,0,1-1.04.56,4.566,4.566,0,0,1-1.28.18,3.4,3.4,0,0,1-2.48-.86,3.282,3.282,0,0,1-.88-2.46v-5.82h-1.8V482.4h1.8v-2.32h1.92v2.32h3.04v1.58h-3.04v5.74a1.892,1.892,0,0,0,.42,1.32,1.634,1.634,0,0,0,1.24.46,2.314,2.314,0,0,0,1.5-.5Zm5.361.74a9.118,9.118,0,0,1-2.5-.34,5.621,5.621,0,0,1-1.88-.9l.8-1.52a5.762,5.762,0,0,0,1.7.8,7,7,0,0,0,2.02.3q2.52,0,2.52-1.44a.932.932,0,0,0-.34-.76,2.048,2.048,0,0,0-.86-.4q-.5-.139-1.44-.3a14.6,14.6,0,0,1-2.1-.46,3.232,3.232,0,0,1-1.38-.88,2.451,2.451,0,0,1-.58-1.74,2.692,2.692,0,0,1,1.2-2.3,5.328,5.328,0,0,1,3.22-.88,8.881,8.881,0,0,1,2.12.26,5.7,5.7,0,0,1,1.74.7l-.82,1.52a5.51,5.51,0,0,0-3.06-.84,3.536,3.536,0,0,0-1.86.4,1.209,1.209,0,0,0-.64,1.06,1.01,1.01,0,0,0,.36.82,2.279,2.279,0,0,0,.88.44q.54.139,1.5.32a14.579,14.579,0,0,1,2.06.48,3,3,0,0,1,1.36.84,2.365,2.365,0,0,1,.56,1.68,2.667,2.667,0,0,1-1.24,2.3A5.81,5.81,0,0,1,335.969,493.12Zm17.211.04a5.334,5.334,0,0,1-2.96-.84,5.794,5.794,0,0,1-2.02-2.48,10.333,10.333,0,0,1,0-7.68,5.658,5.658,0,0,1,2.02-2.46,5.246,5.246,0,0,1,2.96-.86,5.117,5.117,0,0,1,2.92.86,5.6,5.6,0,0,1,2.04,2.46,10.333,10.333,0,0,1,0,7.68,5.734,5.734,0,0,1-2.04,2.48A5.2,5.2,0,0,1,353.18,493.16Zm0-1.78a3.146,3.146,0,0,0,2.68-1.38,8.353,8.353,0,0,0,0-8,3.146,3.146,0,0,0-2.68-1.38,3.216,3.216,0,0,0-2.72,1.38,8.5,8.5,0,0,0,0,8A3.216,3.216,0,0,0,353.18,491.38Zm17.4-.12V493h-10.06v-1.36l5.7-5.5a6.9,6.9,0,0,0,1.4-1.72,3.358,3.358,0,0,0,.36-1.48,2.02,2.02,0,0,0-.78-1.7,3.406,3.406,0,0,0-2.2-.62,4.39,4.39,0,0,0-3.58,1.52l-1.36-1.18a5.468,5.468,0,0,1,2.14-1.56,7.667,7.667,0,0,1,2.98-.56,5.37,5.37,0,0,1,3.5,1.06,3.44,3.44,0,0,1,1.3,2.84,4.838,4.838,0,0,1-.48,2.12,8.452,8.452,0,0,1-1.82,2.28l-4.28,4.12ZM376.566,479v14h-1.98V480.74h-3.16V479Zm7.062,5.58a6.927,6.927,0,0,1,4.4,1.14,3.707,3.707,0,0,1,1.42,3.08,4.27,4.27,0,0,1-.6,2.24,4.036,4.036,0,0,1-1.78,1.56,6.8,6.8,0,0,1-2.92.56,9.366,9.366,0,0,1-2.86-.44,6.466,6.466,0,0,1-2.28-1.26l.92-1.58a5.406,5.406,0,0,0,1.84,1.1,6.956,6.956,0,0,0,2.36.4,3.936,3.936,0,0,0,2.44-.66,2.2,2.2,0,0,0,.88-1.84,2.135,2.135,0,0,0-.96-1.9,6.038,6.038,0,0,0-3.28-.66h-3.18l.74-7.32h7.9v1.74h-6.22l-.38,3.84Zm13.524-.08a5.6,5.6,0,0,1,2.46.52,4,4,0,0,1,2.34,3.72,4.115,4.115,0,0,1-.66,2.32,4.313,4.313,0,0,1-1.78,1.56,5.724,5.724,0,0,1-2.52.54,5.4,5.4,0,0,1-4.36-1.82,7.836,7.836,0,0,1-1.52-5.16,8.833,8.833,0,0,1,.82-3.98,5.791,5.791,0,0,1,2.32-2.5,6.876,6.876,0,0,1,3.48-.86,8.048,8.048,0,0,1,1.92.22,5.126,5.126,0,0,1,1.56.6l-.76,1.56a4.8,4.8,0,0,0-2.68-.66,4.4,4.4,0,0,0-3.42,1.36,5.579,5.579,0,0,0-1.24,3.92,4.9,4.9,0,0,0,.02.5,3.744,3.744,0,0,1,1.64-1.36A5.707,5.707,0,0,1,397.152,484.5Zm-.24,7.04a3.314,3.314,0,0,0,2.24-.74,2.477,2.477,0,0,0,.86-1.98,2.4,2.4,0,0,0-.88-1.96,3.436,3.436,0,0,0-2.32-.74,3.8,3.8,0,0,0-1.68.36,2.928,2.928,0,0,0-1.14.98,2.5,2.5,0,0,0-.4,1.38,2.556,2.556,0,0,0,.38,1.36,2.956,2.956,0,0,0,1.14.98A4.17,4.17,0,0,0,396.912,491.54ZM116.9,513.16a5.807,5.807,0,0,1-4.36-1.6,6.323,6.323,0,0,1-1.56-4.6V499h2v7.88q0,4.5,3.94,4.5a3.813,3.813,0,0,0,2.94-1.1,4.913,4.913,0,0,0,1.02-3.4V499h1.94v7.96a6.353,6.353,0,0,1-1.56,4.62A5.851,5.851,0,0,1,116.9,513.16Zm15.4-10.86a4.321,4.321,0,0,1,3.2,1.18,4.544,4.544,0,0,1,1.2,3.42V513h-1.92v-5.88a3.25,3.25,0,0,0-.74-2.32,2.783,2.783,0,0,0-2.12-.78,3.284,3.284,0,0,0-2.46.92,3.521,3.521,0,0,0-.9,2.6V513h-1.92V502.4h1.84V504a3.742,3.742,0,0,1,1.56-1.26A5.564,5.564,0,0,1,132.3,502.3Zm7.954.1h1.92V513h-1.92Zm.96-2.04a1.313,1.313,0,0,1-.94-.36,1.256,1.256,0,0,1,0-1.76,1.277,1.277,0,0,1,.94-.38,1.246,1.246,0,0,1,.92.36,1.105,1.105,0,0,1,.38.86,1.264,1.264,0,0,1-1.3,1.28ZM151.8,512.38a2.982,2.982,0,0,1-1.04.56,4.571,4.571,0,0,1-1.28.18,3.4,3.4,0,0,1-2.48-.86,3.282,3.282,0,0,1-.88-2.46v-5.82h-1.8V502.4h1.8v-2.32h1.92v2.32h3.04v1.58h-3.04v5.74a1.892,1.892,0,0,0,.42,1.32,1.632,1.632,0,0,0,1.24.46,2.318,2.318,0,0,0,1.5-.5Zm11.549-4.62a5.409,5.409,0,0,1-.04.58h-8.6a3.382,3.382,0,0,0,1.22,2.26,4.087,4.087,0,0,0,2.62.84,3.932,3.932,0,0,0,3.06-1.28l1.06,1.24a4.625,4.625,0,0,1-1.8,1.28,6.158,6.158,0,0,1-2.38.44,6.34,6.34,0,0,1-2.98-.68,5.06,5.06,0,0,1-2.02-1.94,5.6,5.6,0,0,1-.7-2.8,5.689,5.689,0,0,1,.68-2.78,4.96,4.96,0,0,1,1.9-1.92,5.405,5.405,0,0,1,2.74-.7,5.184,5.184,0,0,1,2.7.7,4.689,4.689,0,0,1,1.86,1.92A5.8,5.8,0,0,1,163.349,507.76Zm-5.24-3.84a3.356,3.356,0,0,0-2.32.84,3.409,3.409,0,0,0-1.08,2.2h6.8a3.345,3.345,0,0,0-1.1-2.18A3.239,3.239,0,0,0,158.109,503.92Zm17.906-5.76V513h-1.84v-1.68a4.148,4.148,0,0,1-1.62,1.34,5.013,5.013,0,0,1-2.16.46,5.579,5.579,0,0,1-2.76-.68,4.965,4.965,0,0,1-1.92-1.9,5.813,5.813,0,0,1-.68-2.84,5.7,5.7,0,0,1,.68-2.82,4.965,4.965,0,0,1,1.92-1.9,5.579,5.579,0,0,1,2.76-.68,4.985,4.985,0,0,1,2.1.44,3.99,3.99,0,0,1,1.6,1.26v-5.84Zm-5.46,13.28a3.65,3.65,0,0,0,1.82-.46,3.377,3.377,0,0,0,1.28-1.32,4.087,4.087,0,0,0,.46-1.96,3.971,3.971,0,0,0-.46-1.94,3.213,3.213,0,0,0-1.28-1.32,3.649,3.649,0,0,0-1.82-.46,3.693,3.693,0,0,0-1.84.46,3.4,3.4,0,0,0-1.28,1.32,3.982,3.982,0,0,0-.46,1.94,4.1,4.1,0,0,0,.46,1.96,3.582,3.582,0,0,0,1.28,1.32A3.693,3.693,0,0,0,170.555,511.44Zm18.824,1.72a9.86,9.86,0,0,1-3.06-.48,6.372,6.372,0,0,1-2.3-1.28l.74-1.56a6.293,6.293,0,0,0,2.04,1.18,7.781,7.781,0,0,0,2.58.44,4.689,4.689,0,0,0,2.6-.58,1.842,1.842,0,0,0,.86-1.58,1.5,1.5,0,0,0-.48-1.16,2.963,2.963,0,0,0-1.16-.7q-.68-.24-1.94-.54a20.713,20.713,0,0,1-2.56-.76,4.359,4.359,0,0,1-1.66-1.16,3.2,3.2,0,0,1-.68-2.14,3.654,3.654,0,0,1,.58-2.02,4.121,4.121,0,0,1,1.8-1.44,7.263,7.263,0,0,1,2.98-.54,9.442,9.442,0,0,1,2.44.32,6.481,6.481,0,0,1,2.06.92l-.66,1.6a7.006,7.006,0,0,0-1.88-.84,6.8,6.8,0,0,0-1.96-.3,4.372,4.372,0,0,0-2.56.62,1.905,1.905,0,0,0-.84,1.6,1.563,1.563,0,0,0,.48,1.18,3.56,3.56,0,0,0,1.18.7q.72.24,1.94.52a19.513,19.513,0,0,1,2.54.76,4.187,4.187,0,0,1,1.64,1.16,3.026,3.026,0,0,1,.7,2.1,3.623,3.623,0,0,1-.6,2.02,4.1,4.1,0,0,1-1.82,1.44A7.648,7.648,0,0,1,189.379,513.16Zm14.022-.78a2.982,2.982,0,0,1-1.04.56,4.566,4.566,0,0,1-1.28.18,3.4,3.4,0,0,1-2.48-.86,3.282,3.282,0,0,1-.88-2.46v-5.82h-1.8V502.4h1.8v-2.32h1.92v2.32h3.04v1.58h-3.04v5.74a1.892,1.892,0,0,0,.42,1.32,1.634,1.634,0,0,0,1.24.46,2.314,2.314,0,0,0,1.5-.5Zm6.181-10.08a4.755,4.755,0,0,1,3.36,1.08,4.149,4.149,0,0,1,1.18,3.22V513H212.3v-1.4a3.092,3.092,0,0,1-1.38,1.14,5.277,5.277,0,0,1-2.1.38,4.461,4.461,0,0,1-2.86-.86,2.954,2.954,0,0,1-.04-4.5,4.986,4.986,0,0,1,3.24-.86h3.04v-.38a2.448,2.448,0,0,0-.72-1.9,3.036,3.036,0,0,0-2.12-.66,5.465,5.465,0,0,0-1.84.32,4.6,4.6,0,0,0-1.52.82l-.8-1.44a5.68,5.68,0,0,1,1.96-1A7.992,7.992,0,0,1,209.582,502.3Zm-.44,9.34a3.622,3.622,0,0,0,1.9-.48,2.852,2.852,0,0,0,1.16-1.4v-1.48h-2.96q-2.439,0-2.44,1.64a1.486,1.486,0,0,0,.62,1.26A2.834,2.834,0,0,0,209.142,511.64Zm14.493.74a2.973,2.973,0,0,1-1.04.56,4.566,4.566,0,0,1-1.28.18,3.4,3.4,0,0,1-2.48-.86,3.286,3.286,0,0,1-.88-2.46v-5.82h-1.8V502.4h1.8v-2.32h1.92v2.32h3.04v1.58h-3.04v5.74a1.892,1.892,0,0,0,.42,1.32,1.635,1.635,0,0,0,1.24.46,2.314,2.314,0,0,0,1.5-.5Zm11.55-4.62a5.409,5.409,0,0,1-.04.58h-8.6a3.382,3.382,0,0,0,1.22,2.26,4.087,4.087,0,0,0,2.62.84,3.932,3.932,0,0,0,3.06-1.28l1.06,1.24a4.625,4.625,0,0,1-1.8,1.28,6.162,6.162,0,0,1-2.38.44,6.34,6.34,0,0,1-2.98-.68,5.053,5.053,0,0,1-2.02-1.94,5.593,5.593,0,0,1-.7-2.8,5.689,5.689,0,0,1,.68-2.78,4.96,4.96,0,0,1,1.9-1.92,5.4,5.4,0,0,1,2.74-.7,5.189,5.189,0,0,1,2.7.7,4.688,4.688,0,0,1,1.86,1.92A5.813,5.813,0,0,1,235.185,507.76Zm-5.24-3.84a3.356,3.356,0,0,0-2.32.84,3.409,3.409,0,0,0-1.08,2.2h6.8a3.35,3.35,0,0,0-1.1-2.18A3.239,3.239,0,0,0,229.945,503.92Zm10.946,9.2a9.118,9.118,0,0,1-2.5-.34,5.622,5.622,0,0,1-1.88-.9l.8-1.52a5.763,5.763,0,0,0,1.7.8,7,7,0,0,0,2.02.3q2.52,0,2.52-1.44a.932.932,0,0,0-.34-.76,2.048,2.048,0,0,0-.86-.4q-.5-.139-1.44-.3a14.6,14.6,0,0,1-2.1-.46,3.232,3.232,0,0,1-1.38-.88,2.451,2.451,0,0,1-.58-1.74,2.692,2.692,0,0,1,1.2-2.3,5.329,5.329,0,0,1,3.22-.88,8.881,8.881,0,0,1,2.12.26,5.694,5.694,0,0,1,1.74.7l-.82,1.52a5.51,5.51,0,0,0-3.06-.84,3.536,3.536,0,0,0-1.86.4,1.209,1.209,0,0,0-.64,1.06,1.01,1.01,0,0,0,.36.82,2.279,2.279,0,0,0,.88.44q.54.139,1.5.32a14.579,14.579,0,0,1,2.06.48,3,3,0,0,1,1.36.84,2.365,2.365,0,0,1,.56,1.68,2.667,2.667,0,0,1-1.24,2.3A5.81,5.81,0,0,1,240.891,513.12Z" transform="translate(372.81 227.523)" fill="#fff"/>
    <circle id="Ellipse_331" data-name="Ellipse 331" cx="18.286" cy="18.286" r="18.286" transform="translate(420.544 935.99)" fill="#f6af03"/>
    <g id="Group_45" data-name="Group 45" transform="translate(372.81 227.523)">
      <path id="Path_16689" data-name="Path 16689" d="M75.773,721.176a7.6,7.6,0,0,1-2.158.571,3.693,3.693,0,0,0,1.648-2.034,7.48,7.48,0,0,1-2.378.892,3.715,3.715,0,0,0-1.246-.864,3.784,3.784,0,0,0-1.492-.3A3.718,3.718,0,0,0,66.4,723.13a4.169,4.169,0,0,0,.092.846,10.7,10.7,0,0,1-7.727-3.863,3.624,3.624,0,0,0-.51,1.864,3.679,3.679,0,0,0,1.67,3.075,3.819,3.819,0,0,1-1.694-.47v.046a3.706,3.706,0,0,0,3,3.622,4,4,0,0,1-.987.126,4.975,4.975,0,0,1-.708-.057,3.746,3.746,0,0,0,3.5,2.56,7.581,7.581,0,0,1-4.652,1.578,7.7,7.7,0,0,1-.905-.046,10.728,10.728,0,0,0,5.756,1.656,10.505,10.505,0,0,0,10.663-10.5c0-.16,0-.32-.011-.48A8.017,8.017,0,0,0,75.773,721.176Z" fill="#fff"/>
    </g>
    <circle id="Ellipse_332" data-name="Ellipse 332" cx="18.286" cy="18.286" r="18.286" transform="translate(552.202 935.99)" fill="#f6af03"/>
    <path id="Path_16690" data-name="Path 16690" d="M204.626,721.669a16.737,16.737,0,0,0-3.723-1.011.067.067,0,0,0-.034,0,.058.058,0,0,0-.025.021,8.827,8.827,0,0,0-.464.833,15.9,15.9,0,0,0-4.181,0,8.07,8.07,0,0,0-.47-.833.061.061,0,0,0-.026-.021.064.064,0,0,0-.034,0,16.606,16.606,0,0,0-3.722,1.011.043.043,0,0,0-.024.017,12.23,12.23,0,0,0-2.7,9.1.053.053,0,0,0,.024.037,16.1,16.1,0,0,0,4.566,2.02.06.06,0,0,0,.035,0,.058.058,0,0,0,.029-.018,9.43,9.43,0,0,0,.935-1.329.047.047,0,0,0,.005-.031.049.049,0,0,0-.017-.028.08.08,0,0,0-.02-.011,10.665,10.665,0,0,1-1.427-.595.05.05,0,0,1-.026-.029.044.044,0,0,1,0-.037.05.05,0,0,1,.017-.019c.1-.062.192-.128.283-.194a.056.056,0,0,1,.028-.011.061.061,0,0,1,.03,0,12.227,12.227,0,0,0,9.19,0,.066.066,0,0,1,.031,0,.064.064,0,0,1,.03.011c.091.066.187.132.283.194a.049.049,0,0,1,.018.02.05.05,0,0,1,.006.024.052.052,0,0,1-.008.024.055.055,0,0,1-.02.017,9.964,9.964,0,0,1-1.428.594.072.072,0,0,0-.021.012.046.046,0,0,0-.013.018.039.039,0,0,0,0,.021.047.047,0,0,0,.006.02,10.6,10.6,0,0,0,.934,1.329.059.059,0,0,0,.028.018.063.063,0,0,0,.036,0,16.054,16.054,0,0,0,4.573-2.02.048.048,0,0,0,.016-.016.038.038,0,0,0,.008-.021,12.173,12.173,0,0,0-2.7-9.1.052.052,0,0,0-.01-.011A.032.032,0,0,0,204.626,721.669Zm-9.369,7.3a1.612,1.612,0,1,1,0-3.223,1.612,1.612,0,1,1,0,3.223Zm6.075,0a1.612,1.612,0,1,1,0-3.223,1.612,1.612,0,1,1,0,3.223Z" transform="translate(372.81 227.523)" fill="#fff"/>
    <path id="Path_16691" data-name="Path 16691" d="M55.133,124.628a9.857,9.857,0,0,1-3.06-.48,6.369,6.369,0,0,1-2.3-1.28l.74-1.56a6.261,6.261,0,0,0,2.04,1.18,7.755,7.755,0,0,0,2.58.44,4.69,4.69,0,0,0,2.6-.58,1.842,1.842,0,0,0,.86-1.58,1.5,1.5,0,0,0-.48-1.16,2.982,2.982,0,0,0-1.16-.7q-.68-.24-1.94-.54a20.489,20.489,0,0,1-2.56-.76,4.357,4.357,0,0,1-1.66-1.16,3.192,3.192,0,0,1-.68-2.14,3.65,3.65,0,0,1,.58-2.02,4.122,4.122,0,0,1,1.8-1.44,7.261,7.261,0,0,1,2.98-.54,9.444,9.444,0,0,1,2.44.32,6.506,6.506,0,0,1,2.06.92l-.66,1.6a7.019,7.019,0,0,0-1.88-.84,6.8,6.8,0,0,0-1.96-.3,4.37,4.37,0,0,0-2.56.62,1.907,1.907,0,0,0-.84,1.6,1.561,1.561,0,0,0,.48,1.18,3.536,3.536,0,0,0,1.18.7q.72.24,1.94.52a19.711,19.711,0,0,1,2.54.76,4.2,4.2,0,0,1,1.64,1.16,3.027,3.027,0,0,1,.7,2.1,3.62,3.62,0,0,1-.6,2.02,4.109,4.109,0,0,1-1.82,1.44A7.65,7.65,0,0,1,55.133,124.628Zm11.922-10.86a4.757,4.757,0,0,1,3.36,1.08,4.151,4.151,0,0,1,1.18,3.22v6.4h-1.82v-1.4a3.08,3.08,0,0,1-1.38,1.14,5.264,5.264,0,0,1-2.1.38,4.454,4.454,0,0,1-2.86-.86,2.954,2.954,0,0,1-.04-4.5,4.986,4.986,0,0,1,3.24-.86h3.04v-.38a2.449,2.449,0,0,0-.72-1.9,3.037,3.037,0,0,0-2.12-.66,5.462,5.462,0,0,0-1.84.32,4.612,4.612,0,0,0-1.52.82l-.8-1.44a5.677,5.677,0,0,1,1.96-1A7.99,7.99,0,0,1,67.055,113.768Zm-.44,9.34a3.624,3.624,0,0,0,1.9-.48,2.855,2.855,0,0,0,1.16-1.4v-1.48h-2.96q-2.44,0-2.44,1.64a1.482,1.482,0,0,0,.62,1.26A2.832,2.832,0,0,0,66.615,123.108Zm17.718-9.24-5.14,11.66a5.213,5.213,0,0,1-1.6,2.28,3.585,3.585,0,0,1-2.18.66,4.536,4.536,0,0,1-1.52-.26,3.012,3.012,0,0,1-1.2-.72l.82-1.44a2.673,2.673,0,0,0,1.9.78,1.757,1.757,0,0,0,1.16-.38,3.008,3.008,0,0,0,.86-1.26l.34-.74-4.68-10.58h2l3.7,8.48,3.66-8.48Zm10.2,10.72a9.114,9.114,0,0,1-2.5-.34,5.615,5.615,0,0,1-1.88-.9l.8-1.52a5.727,5.727,0,0,0,1.7.8,7,7,0,0,0,2.02.3q2.52,0,2.52-1.44a.933.933,0,0,0-.34-.76,2.066,2.066,0,0,0-.86-.4q-.5-.14-1.44-.3a14.452,14.452,0,0,1-2.1-.46,3.219,3.219,0,0,1-1.38-.88,2.448,2.448,0,0,1-.58-1.74,2.693,2.693,0,0,1,1.2-2.3,5.334,5.334,0,0,1,3.22-.88,8.887,8.887,0,0,1,2.12.26,5.726,5.726,0,0,1,1.74.7l-.82,1.52a5.513,5.513,0,0,0-3.06-.84,3.544,3.544,0,0,0-1.86.4,1.208,1.208,0,0,0-.64,1.06,1.01,1.01,0,0,0,.36.82,2.274,2.274,0,0,0,.88.44q.54.141,1.5.32a14.6,14.6,0,0,1,2.06.48,3.008,3.008,0,0,1,1.36.84,2.368,2.368,0,0,1,.56,1.68,2.668,2.668,0,0,1-1.24,2.3A5.812,5.812,0,0,1,94.536,124.588Zm11.519,0a5.745,5.745,0,0,1-2.84-.7,5.16,5.16,0,0,1-1.98-1.92,5.6,5.6,0,0,1-.7-2.8,5.494,5.494,0,0,1,.7-2.78,5,5,0,0,1,1.98-1.92,5.756,5.756,0,0,1,2.84-.7,5.639,5.639,0,0,1,2.82.7,4.856,4.856,0,0,1,1.96,1.92,5.367,5.367,0,0,1,.72,2.78,5.471,5.471,0,0,1-.72,2.8,5.013,5.013,0,0,1-1.96,1.92A5.629,5.629,0,0,1,106.055,124.588Zm0-1.68a3.581,3.581,0,0,0,1.82-.46,3.377,3.377,0,0,0,1.28-1.32,4.084,4.084,0,0,0,.46-1.96,3.971,3.971,0,0,0-.46-1.94,3.213,3.213,0,0,0-1.28-1.32,3.591,3.591,0,0,0-1.82-.46,3.7,3.7,0,0,0-1.84.46,3.4,3.4,0,0,0-1.28,1.32,3.982,3.982,0,0,0-.46,1.94,4.1,4.1,0,0,0,.46,1.96,3.581,3.581,0,0,0,1.28,1.32A3.693,3.693,0,0,0,106.055,122.908Zm21.416-9.14a4.273,4.273,0,0,1,3.16,1.16,4.623,4.623,0,0,1,1.18,3.44v6.1h-1.92v-5.88a3.314,3.314,0,0,0-.72-2.32,2.574,2.574,0,0,0-2.02-.78,3.023,3.023,0,0,0-2.32.92,3.617,3.617,0,0,0-.86,2.6v5.46h-1.92v-5.88a3.314,3.314,0,0,0-.72-2.32,2.574,2.574,0,0,0-2.02-.78,3.023,3.023,0,0,0-2.32.92,3.617,3.617,0,0,0-.86,2.6v5.46h-1.92v-10.6h1.84v1.58a3.645,3.645,0,0,1,1.52-1.24,4.994,4.994,0,0,1,2.14-.44,4.7,4.7,0,0,1,2.2.5,3.48,3.48,0,0,1,1.48,1.46,4.077,4.077,0,0,1,1.66-1.44A5.514,5.514,0,0,1,127.471,113.768Zm17.511,5.46a5.41,5.41,0,0,1-.04.58h-8.6a3.38,3.38,0,0,0,1.22,2.26,4.087,4.087,0,0,0,2.62.84,3.929,3.929,0,0,0,3.06-1.28l1.06,1.24a4.625,4.625,0,0,1-1.8,1.28,6.144,6.144,0,0,1-2.38.44,6.328,6.328,0,0,1-2.98-.68,5.047,5.047,0,0,1-2.02-1.94,5.59,5.59,0,0,1-.7-2.8,5.691,5.691,0,0,1,.68-2.78,4.973,4.973,0,0,1,1.9-1.92,5.413,5.413,0,0,1,2.74-.7,5.2,5.2,0,0,1,2.7.7,4.7,4.7,0,0,1,1.86,1.92A5.816,5.816,0,0,1,144.982,119.228Zm-5.24-3.84a3.356,3.356,0,0,0-2.32.84,3.412,3.412,0,0,0-1.08,2.2h6.8a3.35,3.35,0,0,0-1.1-2.18A3.239,3.239,0,0,0,139.742,115.388Zm13.866,8.46a2.973,2.973,0,0,1-1.04.56,4.566,4.566,0,0,1-1.28.18,3.4,3.4,0,0,1-2.48-.86,3.286,3.286,0,0,1-.88-2.46v-5.82h-1.8v-1.58h1.8v-2.32h1.92v2.32h3.04v1.58h-3.04v5.74a1.888,1.888,0,0,0,.42,1.32,1.635,1.635,0,0,0,1.24.46,2.309,2.309,0,0,0,1.5-.5Zm7.981-10.08a4.325,4.325,0,0,1,3.2,1.18,4.547,4.547,0,0,1,1.2,3.42v6.1h-1.92v-5.88a3.252,3.252,0,0,0-.74-2.32,2.783,2.783,0,0,0-2.12-.78,3.285,3.285,0,0,0-2.46.92,3.521,3.521,0,0,0-.9,2.6v5.46h-1.92v-14.84h1.92v5.74a3.983,3.983,0,0,1,1.56-1.18A5.482,5.482,0,0,1,161.589,113.768Zm7.954.1h1.92v10.6h-1.92Zm.96-2.04a1.313,1.313,0,0,1-.94-.36,1.256,1.256,0,0,1,0-1.76,1.276,1.276,0,0,1,.94-.38,1.246,1.246,0,0,1,.92.36,1.107,1.107,0,0,1,.38.86,1.264,1.264,0,0,1-1.3,1.28Zm10.286,1.94a4.328,4.328,0,0,1,3.2,1.18,4.547,4.547,0,0,1,1.2,3.42v6.1h-1.92v-5.88a3.257,3.257,0,0,0-.74-2.32,2.784,2.784,0,0,0-2.12-.78,3.285,3.285,0,0,0-2.46.92,3.521,3.521,0,0,0-.9,2.6v5.46h-1.92v-10.6h1.84v1.6a3.745,3.745,0,0,1,1.56-1.26A5.56,5.56,0,0,1,180.789,113.768Zm18.152.1v9.16a5.439,5.439,0,0,1-1.38,4.1,5.694,5.694,0,0,1-4.12,1.34,9.635,9.635,0,0,1-2.86-.42,5.55,5.55,0,0,1-2.2-1.16l.92-1.48a5.3,5.3,0,0,0,1.82,1,6.853,6.853,0,0,0,2.26.38,3.737,3.737,0,0,0,2.74-.88,3.6,3.6,0,0,0,.9-2.68v-.84a4.329,4.329,0,0,1-1.68,1.24,5.607,5.607,0,0,1-2.14.4,5.92,5.92,0,0,1-2.76-.64,4.932,4.932,0,0,1-1.92-1.82,5.147,5.147,0,0,1-.7-2.68,5.045,5.045,0,0,1,.7-2.66,4.76,4.76,0,0,1,1.92-1.82,5.932,5.932,0,0,1,2.76-.64,5.551,5.551,0,0,1,2.22.44,4.138,4.138,0,0,1,1.7,1.3v-1.64Zm-5.52,8.48a3.866,3.866,0,0,0,1.86-.44,3.191,3.191,0,0,0,1.3-1.22,3.429,3.429,0,0,0,.48-1.8,3.214,3.214,0,0,0-1.02-2.48,4.083,4.083,0,0,0-5.26,0,3.214,3.214,0,0,0-1.02,2.48,3.54,3.54,0,0,0,.46,1.8,3.362,3.362,0,0,0,1.3,1.22A4.024,4.024,0,0,0,193.421,122.348Zm20.519,1.5a2.973,2.973,0,0,1-1.04.56,4.566,4.566,0,0,1-1.28.18,3.4,3.4,0,0,1-2.48-.86,3.286,3.286,0,0,1-.88-2.46v-5.82h-1.8v-1.58h1.8v-2.32h1.92v2.32h3.04v1.58h-3.04v5.74a1.888,1.888,0,0,0,.42,1.32,1.635,1.635,0,0,0,1.24.46,2.309,2.309,0,0,0,1.5-.5Zm6.51.74a5.745,5.745,0,0,1-2.84-.7,5.16,5.16,0,0,1-1.98-1.92,5.59,5.59,0,0,1-.7-2.8,5.483,5.483,0,0,1,.7-2.78,5,5,0,0,1,1.98-1.92,5.756,5.756,0,0,1,2.84-.7,5.645,5.645,0,0,1,2.82.7,4.862,4.862,0,0,1,1.96,1.92,5.367,5.367,0,0,1,.72,2.78,5.471,5.471,0,0,1-.72,2.8,5.019,5.019,0,0,1-1.96,1.92A5.634,5.634,0,0,1,220.45,124.588Zm0-1.68a3.581,3.581,0,0,0,1.82-.46,3.384,3.384,0,0,0,1.28-1.32,4.084,4.084,0,0,0,.46-1.96,3.972,3.972,0,0,0-.46-1.94,3.219,3.219,0,0,0-1.28-1.32,3.591,3.591,0,0,0-1.82-.46,3.7,3.7,0,0,0-1.84.46,3.4,3.4,0,0,0-1.28,1.32,3.971,3.971,0,0,0-.46,1.94,4.084,4.084,0,0,0,.46,1.96,3.581,3.581,0,0,0,1.28,1.32A3.693,3.693,0,0,0,220.45,122.908Zm16.566,1.68a9.117,9.117,0,0,1-2.5-.34,5.621,5.621,0,0,1-1.88-.9l.8-1.52a5.737,5.737,0,0,0,1.7.8,7,7,0,0,0,2.02.3q2.52,0,2.52-1.44a.932.932,0,0,0-.34-.76,2.06,2.06,0,0,0-.86-.4q-.5-.14-1.44-.3a14.47,14.47,0,0,1-2.1-.46,3.223,3.223,0,0,1-1.38-.88,2.451,2.451,0,0,1-.58-1.74,2.693,2.693,0,0,1,1.2-2.3,5.335,5.335,0,0,1,3.22-.88,8.882,8.882,0,0,1,2.12.26,5.72,5.72,0,0,1,1.74.7l-.82,1.52a5.51,5.51,0,0,0-3.06-.84,3.545,3.545,0,0,0-1.86.4,1.209,1.209,0,0,0-.64,1.06,1.01,1.01,0,0,0,.36.82,2.279,2.279,0,0,0,.88.44q.54.141,1.5.32a14.578,14.578,0,0,1,2.06.48,3,3,0,0,1,1.36.84,2.365,2.365,0,0,1,.56,1.68,2.667,2.667,0,0,1-1.24,2.3A5.81,5.81,0,0,1,237.016,124.588Zm12.94-.74a2.982,2.982,0,0,1-1.04.56,4.566,4.566,0,0,1-1.28.18,3.4,3.4,0,0,1-2.48-.86,3.282,3.282,0,0,1-.88-2.46v-5.82h-1.8v-1.58h1.8v-2.32h1.92v2.32h3.04v1.58H246.2v5.74a1.888,1.888,0,0,0,.42,1.32,1.633,1.633,0,0,0,1.24.46,2.309,2.309,0,0,0,1.5-.5Zm6.181-10.08a4.755,4.755,0,0,1,3.36,1.08,4.15,4.15,0,0,1,1.18,3.22v6.4h-1.82v-1.4a3.08,3.08,0,0,1-1.38,1.14,5.266,5.266,0,0,1-2.1.38,4.453,4.453,0,0,1-2.86-.86,2.954,2.954,0,0,1-.04-4.5,4.986,4.986,0,0,1,3.24-.86h3.04v-.38a2.449,2.449,0,0,0-.72-1.9,3.038,3.038,0,0,0-2.12-.66,5.461,5.461,0,0,0-1.84.32,4.609,4.609,0,0,0-1.52.82l-.8-1.44a5.681,5.681,0,0,1,1.96-1A7.992,7.992,0,0,1,256.137,113.768Zm-.44,9.34a3.624,3.624,0,0,0,1.9-.48,2.857,2.857,0,0,0,1.16-1.4v-1.48H255.8q-2.44,0-2.44,1.64a1.483,1.483,0,0,0,.62,1.26A2.832,2.832,0,0,0,255.7,123.108Zm10.373-7.46a3.283,3.283,0,0,1,1.48-1.4,5.375,5.375,0,0,1,2.38-.48v1.86a3.811,3.811,0,0,0-.44-.02,3.247,3.247,0,0,0-2.46.94,3.676,3.676,0,0,0-.88,2.64v5.28h-1.92v-10.6h1.84Zm12.616,8.2a2.973,2.973,0,0,1-1.04.56,4.566,4.566,0,0,1-1.28.18,3.4,3.4,0,0,1-2.48-.86,3.286,3.286,0,0,1-.88-2.46v-5.82h-1.8v-1.58h1.8v-2.32h1.92v2.32h3.04v1.58h-3.04v5.74a1.888,1.888,0,0,0,.42,1.32,1.635,1.635,0,0,0,1.24.46,2.309,2.309,0,0,0,1.5-.5Zm11.553-10.08a4.759,4.759,0,0,1,3.36,1.08,4.154,4.154,0,0,1,1.18,3.22v6.4h-1.82v-1.4a3.08,3.08,0,0,1-1.38,1.14,5.266,5.266,0,0,1-2.1.38,4.453,4.453,0,0,1-2.86-.86,2.954,2.954,0,0,1-.04-4.5,4.986,4.986,0,0,1,3.24-.86h3.04v-.38a2.449,2.449,0,0,0-.72-1.9,3.038,3.038,0,0,0-2.12-.66,5.461,5.461,0,0,0-1.84.32,4.609,4.609,0,0,0-1.52.82l-.8-1.44a5.672,5.672,0,0,1,1.96-1A7.987,7.987,0,0,1,290.239,113.768Zm-.44,9.34a3.627,3.627,0,0,0,1.9-.48,2.857,2.857,0,0,0,1.16-1.4v-1.48H289.9q-2.44,0-2.44,1.64a1.481,1.481,0,0,0,.62,1.26A2.83,2.83,0,0,0,289.8,123.108Zm13.9-13.48h1.92v14.84H303.7Zm5.586,4.24h1.92v10.6h-1.92Zm.96-2.04a1.313,1.313,0,0,1-.94-.36,1.256,1.256,0,0,1,0-1.76,1.277,1.277,0,0,1,.94-.38,1.246,1.246,0,0,1,.92.36,1.107,1.107,0,0,1,.38.86,1.264,1.264,0,0,1-1.3,1.28Zm14.006,2.04-4.64,10.6h-1.96l-4.64-10.6h2l3.64,8.5,3.72-8.5Zm11.079,5.36a5.684,5.684,0,0,1-.04.58h-8.6a3.376,3.376,0,0,0,1.22,2.26,4.085,4.085,0,0,0,2.62.84,3.932,3.932,0,0,0,3.06-1.28l1.06,1.24a4.625,4.625,0,0,1-1.8,1.28,6.144,6.144,0,0,1-2.38.44,6.325,6.325,0,0,1-2.98-.68,5.047,5.047,0,0,1-2.02-1.94,5.59,5.59,0,0,1-.7-2.8,5.68,5.68,0,0,1,.68-2.78,4.966,4.966,0,0,1,1.9-1.92,5.41,5.41,0,0,1,2.74-.7,5.2,5.2,0,0,1,2.7.7,4.7,4.7,0,0,1,1.86,1.92A5.816,5.816,0,0,1,335.334,119.228Zm-5.24-3.84a3.354,3.354,0,0,0-2.32.84,3.4,3.4,0,0,0-1.08,2.2h6.8a3.354,3.354,0,0,0-1.1-2.18A3.24,3.24,0,0,0,330.094,115.388Zm17.9,9.2a5.939,5.939,0,0,1-2.9-.7,5.161,5.161,0,0,1-1.98-1.92,5.472,5.472,0,0,1-.72-2.8,5.367,5.367,0,0,1,.72-2.78,5,5,0,0,1,1.98-1.92,5.95,5.95,0,0,1,2.9-.7,5.5,5.5,0,0,1,2.56.58,4.12,4.12,0,0,1,1.76,1.68l-1.46.94a3.272,3.272,0,0,0-1.24-1.14,3.54,3.54,0,0,0-1.64-.38,3.857,3.857,0,0,0-1.88.46,3.349,3.349,0,0,0-1.3,1.32,3.972,3.972,0,0,0-.46,1.94,4.128,4.128,0,0,0,.46,1.98,3.376,3.376,0,0,0,1.3,1.3,3.846,3.846,0,0,0,1.88.46,3.528,3.528,0,0,0,1.64-.38,3.257,3.257,0,0,0,1.24-1.14l1.46.92a4.237,4.237,0,0,1-1.76,1.7A5.484,5.484,0,0,1,347.991,124.588Zm12.329-10.82a4.327,4.327,0,0,1,3.2,1.18,4.547,4.547,0,0,1,1.2,3.42v6.1H362.8v-5.88a3.257,3.257,0,0,0-.74-2.32,2.783,2.783,0,0,0-2.12-.78,3.284,3.284,0,0,0-2.46.92,3.521,3.521,0,0,0-.9,2.6v5.46h-1.92v-14.84h1.92v5.74a3.983,3.983,0,0,1,1.56-1.18A5.478,5.478,0,0,1,360.32,113.768Zm11.813,0a4.755,4.755,0,0,1,3.36,1.08,4.15,4.15,0,0,1,1.18,3.22v6.4h-1.82v-1.4a3.08,3.08,0,0,1-1.38,1.14,5.259,5.259,0,0,1-2.1.38,4.455,4.455,0,0,1-2.86-.86,2.954,2.954,0,0,1-.04-4.5,4.986,4.986,0,0,1,3.24-.86h3.04v-.38a2.449,2.449,0,0,0-.72-1.9,3.036,3.036,0,0,0-2.12-.66,5.465,5.465,0,0,0-1.84.32,4.619,4.619,0,0,0-1.52.82l-.8-1.44a5.681,5.681,0,0,1,1.96-1A7.992,7.992,0,0,1,372.133,113.768Zm-.44,9.34a3.622,3.622,0,0,0,1.9-.48,2.851,2.851,0,0,0,1.16-1.4v-1.48h-2.96q-2.439,0-2.44,1.64a1.483,1.483,0,0,0,.62,1.26A2.835,2.835,0,0,0,371.693,123.108Zm14.493.74a2.973,2.973,0,0,1-1.04.56,4.566,4.566,0,0,1-1.28.18,3.4,3.4,0,0,1-2.48-.86,3.286,3.286,0,0,1-.88-2.46v-5.82h-1.8v-1.58h1.8v-2.32h1.92v2.32h3.04v1.58h-3.04v5.74a1.888,1.888,0,0,0,.42,1.32,1.635,1.635,0,0,0,1.24.46,2.309,2.309,0,0,0,1.5-.5Zm2.062-13.38h2.26l-.38,9.58h-1.52Zm1.14,14.12a1.313,1.313,0,0,1-.94-.36,1.25,1.25,0,0,1-.38-.92,1.186,1.186,0,0,1,.38-.9,1.277,1.277,0,0,1,.94-.38,1.263,1.263,0,0,1,1.28,1.28,1.254,1.254,0,0,1-.38.92A1.221,1.221,0,0,1,389.388,124.588Z" transform="translate(372.81 227.523)" fill="#c9c9c9"/>
    <circle id="Ellipse_333" data-name="Ellipse 333" cx="18.286" cy="18.286" r="18.286" transform="translate(486.373 935.99)" fill="#fff"/>
    <path id="Path_16692" data-name="Path 16692" d="M128.69,717.055c.975-.045,1.285-.055,3.769-.055s2.794.011,3.769.055a6.7,6.7,0,0,1,2.22.425,4.674,4.674,0,0,1,2.674,2.674,6.722,6.722,0,0,1,.425,2.219c.045.976.055,1.287.055,3.77s-.011,2.794-.055,3.769a6.708,6.708,0,0,1-.425,2.22,4.667,4.667,0,0,1-2.674,2.674,6.724,6.724,0,0,1-2.219.425c-.976.045-1.286.055-3.77.055s-2.794-.011-3.769-.055a6.71,6.71,0,0,1-2.22-.425,4.669,4.669,0,0,1-2.674-2.673,6.734,6.734,0,0,1-.425-2.22c-.045-.976-.055-1.287-.055-3.77s.011-2.794.055-3.769a6.7,6.7,0,0,1,.425-2.22,4.674,4.674,0,0,1,2.674-2.674,6.723,6.723,0,0,1,2.219-.425Zm7.464,1.646c-.965-.044-1.254-.054-3.7-.054s-2.73.01-3.695.054a5.031,5.031,0,0,0-1.7.315,3.019,3.019,0,0,0-1.734,1.734,5.029,5.029,0,0,0-.315,1.7c-.044.965-.054,1.254-.054,3.7s.01,2.73.054,3.7a5.029,5.029,0,0,0,.315,1.7,3.019,3.019,0,0,0,1.734,1.734,5.031,5.031,0,0,0,1.7.315c.965.044,1.253.054,3.695.054s2.73-.01,3.7-.054a5.031,5.031,0,0,0,1.7-.315,3.019,3.019,0,0,0,1.734-1.734,5.029,5.029,0,0,0,.315-1.7c.044-.965.054-1.254.054-3.7s-.01-2.73-.054-3.7a5.029,5.029,0,0,0-.315-1.7,3.019,3.019,0,0,0-1.734-1.734A5.031,5.031,0,0,0,136.154,718.7Zm-4.863,10.261a3.054,3.054,0,1,0-1.092-.77A3.05,3.05,0,0,0,131.291,728.962Zm-2.155-6.142a4.7,4.7,0,1,1-1.376,3.323A4.691,4.691,0,0,1,129.136,722.82Zm9.065-.677a1.1,1.1,0,0,0,.254-.36,1.111,1.111,0,1,0-.254.36Z" transform="translate(372.81 227.523)" fill="#011c2a" fill-rule="evenodd"/>
    <g id="Group_46" data-name="Group 46" transform="translate(372.81 227.523)" clip-path="url(#clip-path)">
      <path id="Path_16693" data-name="Path 16693" d="M154.118,754.466a10.387,10.387,0,0,0-5.445-3.007,15.572,15.572,0,0,0-2.682-.488,6.4,6.4,0,1,0-9.021.813,4.746,4.746,0,0,0,1.462.894v1.788l-1.3-1.219a3.042,3.042,0,0,0-4.226,0,2.846,2.846,0,0,0-.081,4.063l3.738,4.389a8.738,8.738,0,0,0,1.138,3.17,9.543,9.543,0,0,0,1.544,2.031v1.545a.768.768,0,0,0,.813.812h11.053a.873.873,0,0,0,.812-.812v-2.113a10.373,10.373,0,0,0,2.357-6.583v-4.714C154.362,754.71,154.28,754.547,154.118,754.466Zm-17.88-7.639a4.8,4.8,0,1,1,9.59.162,4.58,4.58,0,0,1-1.788,3.657v-4.063a2.762,2.762,0,0,0-2.763-2.6,2.655,2.655,0,0,0-2.763,2.6v4.226A4.863,4.863,0,0,1,136.238,746.827Zm16.5,12.84a8.382,8.382,0,0,1-2.032,5.771.823.823,0,0,0-.325.568v1.707h-9.427v-1.138a1.008,1.008,0,0,0-.325-.65,6.372,6.372,0,0,1-1.463-1.788,7.987,7.987,0,0,1-.975-2.763,1.162,1.162,0,0,0-.163-.488l-3.9-4.632a1.345,1.345,0,0,1-.406-.975,1.5,1.5,0,0,1,.406-.976,1.485,1.485,0,0,1,1.951,0l2.356,2.357V759.1l1.545-.812v-11.7a1.1,1.1,0,0,1,1.219-.976,1.083,1.083,0,0,1,1.137.976v9.346l1.626.325v-3.739c.081-.081.162-.081.244-.162a12.141,12.141,0,0,1,1.706.162v4.145l1.3.244v-4.226l.975.244a7.174,7.174,0,0,1,1.219.406v4.064l1.3.244V753.9a6.552,6.552,0,0,1,1.951,1.382Z" fill="#fff"/>
    </g>
  </g>
</svg>
