<svg width="17" height="17" viewBox="0 0 17 17" fill="none" xmlns="http://www.w3.org/2000/svg">
<path fill-rule="evenodd" clip-rule="evenodd" d="M0.292068 8.50645C0.292068 3.92086 4.00943 0.203491 8.59503 0.203491C13.1806 0.203491 16.8979 3.92086 16.8979 8.50645C16.8979 13.092 13.1806 16.8094 8.59503 16.8094C4.00943 16.8094 0.292068 13.092 0.292068 8.50645ZM8.59503 1.39449C4.6672 1.39449 1.48308 4.57863 1.48308 8.50645C1.48308 12.4343 4.6672 15.6184 8.59503 15.6184C12.5228 15.6184 15.7069 12.4343 15.7069 8.50645C15.7069 4.57863 12.5228 1.39449 8.59503 1.39449ZM11.5458 5.55598C11.7905 5.80077 11.7905 6.19768 11.5458 6.44247L9.48167 8.50659L11.5458 10.5707C11.7905 10.8155 11.7905 11.2124 11.5458 11.4572C11.301 11.702 10.9041 11.702 10.6593 11.4572L8.59517 9.39309L6.53105 11.4572C6.28625 11.702 5.88935 11.702 5.64455 11.4572C5.39976 11.2124 5.39976 10.8155 5.64455 10.5707L7.70869 8.50659L5.64455 6.44247C5.39976 6.19768 5.39976 5.80077 5.64455 5.55598C5.88935 5.31118 6.28625 5.31118 6.53105 5.55598L8.59517 7.62011L10.6593 5.55598C10.9041 5.31118 11.301 5.31118 11.5458 5.55598Z" fill="#41423C"/>
</svg>
