<svg width="60" height="60" viewBox="0 0 60 60" fill="none" xmlns="http://www.w3.org/2000/svg">
<path d="M58.745 15.465C58.406 14.1882 57.7376 13.0228 56.8065 12.0856C55.8755 11.1485 54.7146 10.4723 53.44 10.125C48.7625 8.86249 30 8.86249 30 8.86249C30 8.86249 11.2375 8.86249 6.5575 10.125C5.28352 10.473 4.12323 11.1493 3.19269 12.0864C2.26215 13.0236 1.59398 14.1886 1.255 15.465C0 20.175 0 30 0 30C0 30 0 39.825 1.255 44.535C1.59396 45.8118 2.26244 46.9771 3.19348 47.9143C4.12452 48.8515 5.28544 49.5276 6.56 49.875C11.2375 51.1375 30 51.1375 30 51.1375C30 51.1375 48.7625 51.1375 53.4425 49.875C54.7172 49.5279 55.8782 48.8518 56.8093 47.9146C57.7404 46.9774 58.4088 45.8119 58.7475 44.535C60 39.825 60 30 60 30C60 30 60 20.175 58.745 15.465ZM23.8625 38.92V21.08L39.545 30L23.8625 38.92Z" fill="white"/>
</svg>
