<svg width="46" height="62" viewBox="0 0 46 62" fill="none" xmlns="http://www.w3.org/2000/svg">
<circle cx="18.8495" cy="18.7525" r="18.286" fill="white"/>
<path fill-rule="evenodd" clip-rule="evenodd" d="M15.6896 9.05486C16.6646 9.00997 16.9755 9 19.459 9C21.9426 9 22.2534 9.01081 23.2276 9.05486C24.2017 9.09891 24.8667 9.25434 25.4485 9.47959C26.0578 9.70983 26.6105 10.0697 27.0676 10.5352C27.5331 10.9915 27.8922 11.5434 28.1216 12.1535C28.3477 12.7353 28.5023 13.4003 28.5471 14.3727C28.592 15.3494 28.602 15.6602 28.602 18.143C28.602 20.6265 28.5912 20.9374 28.5471 21.9124C28.5031 22.8849 28.3477 23.5498 28.1216 24.1316C27.8922 24.7418 27.5325 25.2946 27.0676 25.7516C26.6105 26.2171 26.0578 26.5761 25.4485 26.8055C24.8667 27.0316 24.2017 27.1862 23.2292 27.2311C22.2534 27.276 21.9426 27.286 19.459 27.286C16.9755 27.286 16.6646 27.2751 15.6896 27.2311C14.7171 27.187 14.0522 27.0316 13.4704 26.8055C12.8602 26.5761 12.3074 26.2164 11.8504 25.7516C11.3853 25.295 11.0253 24.7424 10.7956 24.1325C10.5704 23.5506 10.4158 22.8857 10.3709 21.9132C10.326 20.9366 10.316 20.6257 10.316 18.143C10.316 15.6594 10.3268 15.3486 10.3709 14.3744C10.415 13.4003 10.5704 12.7353 10.7956 12.1535C11.0256 11.5435 11.3859 10.9909 11.8512 10.5344C12.3076 10.0693 12.8598 9.70936 13.4695 9.47959C14.0514 9.25434 14.7163 9.09974 15.6888 9.05486H15.6896ZM23.1536 10.7006C22.1894 10.6565 21.9002 10.6474 19.459 10.6474C17.0178 10.6474 16.7286 10.6565 15.7644 10.7006C14.8726 10.7413 14.3888 10.8901 14.0663 11.0156C13.6399 11.1818 13.3349 11.3788 13.0149 11.6988C12.7115 11.994 12.4781 12.3532 12.3317 12.7503C12.2061 13.0728 12.0574 13.5565 12.0166 14.4484C11.9726 15.4126 11.9634 15.7018 11.9634 18.143C11.9634 20.5842 11.9726 20.8734 12.0166 21.8376C12.0574 22.7294 12.2061 23.2132 12.3317 23.5357C12.4779 23.9321 12.7115 24.292 13.0149 24.5871C13.3099 24.8905 13.6699 25.1241 14.0663 25.2703C14.3888 25.3959 14.8726 25.5446 15.7644 25.5854C16.7286 25.6294 17.017 25.6386 19.459 25.6386C21.901 25.6386 22.1894 25.6294 23.1536 25.5854C24.0455 25.5446 24.5292 25.3959 24.8517 25.2703C25.2781 25.1041 25.5831 24.9071 25.9032 24.5871C26.2065 24.292 26.4401 23.9321 26.5864 23.5357C26.7119 23.2132 26.8607 22.7294 26.9014 21.8376C26.9455 20.8734 26.9546 20.5842 26.9546 18.143C26.9546 15.7018 26.9455 15.4126 26.9014 14.4484C26.8607 13.5565 26.7119 13.0728 26.5864 12.7503C26.4201 12.3239 26.2232 12.0188 25.9032 11.6988C25.608 11.3955 25.2488 11.1621 24.8517 11.0156C24.5292 10.8901 24.0455 10.7413 23.1536 10.7006ZM18.2912 20.9615C18.9434 21.233 19.6696 21.2696 20.3458 21.0652C21.022 20.8607 21.6063 20.4278 21.9988 19.8404C22.3913 19.2531 22.5677 18.5477 22.4978 17.8447C22.428 17.1417 22.1163 16.4848 21.6159 15.9861C21.297 15.6673 20.9113 15.4232 20.4866 15.2714C20.062 15.1195 19.609 15.0638 19.1602 15.108C18.7114 15.1523 18.278 15.2955 17.8912 15.5274C17.5045 15.7592 17.1739 16.074 16.9233 16.4489C16.6728 16.8239 16.5085 17.2497 16.4423 17.6958C16.376 18.1418 16.4095 18.597 16.5404 19.0286C16.6712 19.4602 16.8961 19.8574 17.1988 20.1916C17.5016 20.5258 17.8746 20.7888 18.2912 20.9615ZM16.136 14.8199C16.5724 14.3835 17.0904 14.0374 17.6606 13.8012C18.2308 13.565 18.8419 13.4435 19.459 13.4435C20.0762 13.4435 20.6873 13.565 21.2574 13.8012C21.8276 14.0374 22.3457 14.3835 22.7821 14.8199C23.2185 15.2563 23.5646 15.7744 23.8008 16.3446C24.037 16.9147 24.1585 17.5258 24.1585 18.143C24.1585 18.7601 24.037 19.3712 23.8008 19.9414C23.5646 20.5116 23.2185 21.0296 22.7821 21.466C21.9007 22.3474 20.7054 22.8425 19.459 22.8425C18.2126 22.8425 17.0173 22.3474 16.136 21.466C15.2546 20.5847 14.7595 19.3894 14.7595 18.143C14.7595 16.8966 15.2546 15.7012 16.136 14.8199ZM25.2008 14.1433C25.3089 14.0413 25.3955 13.9187 25.4554 13.7826C25.5153 13.6465 25.5472 13.4998 25.5494 13.3512C25.5516 13.2025 25.5239 13.0549 25.468 12.9172C25.4121 12.7794 25.3292 12.6543 25.224 12.5492C25.1189 12.444 24.9938 12.3611 24.856 12.3052C24.7183 12.2493 24.5707 12.2216 24.422 12.2238C24.2734 12.226 24.1267 12.2579 23.9906 12.3178C23.8546 12.3777 23.7319 12.4643 23.6299 12.5724C23.4315 12.7827 23.3229 13.0621 23.3271 13.3512C23.3313 13.6403 23.448 13.9163 23.6524 14.1208C23.8569 14.3252 24.133 14.4419 24.422 14.4461C24.7111 14.4504 24.9905 14.3417 25.2008 14.1433Z" fill="#011C2A"/>
<g clip-path="url(#clip0_121_3)">
<path d="M41.1178 46.4659C39.6549 44.9218 37.7044 43.8652 35.6726 43.4589C34.7786 43.2151 33.8846 43.0525 32.9907 42.9713C35.2663 40.2893 34.8599 36.2258 32.178 33.9502C29.496 31.6746 25.4325 32.081 23.1569 34.7629C20.8813 37.4448 21.2877 41.5084 23.9696 43.784C24.4572 44.1903 24.9448 44.5154 25.4325 44.6779V46.4659L24.1321 45.2468C22.9943 44.1091 21.1251 44.1091 19.9061 45.2468C18.7683 46.3846 18.687 48.1726 19.8248 49.3104L23.5632 53.699C23.7258 54.8368 24.1321 55.8933 24.701 56.8686C25.1074 57.6 25.6763 58.3315 26.2452 58.9004V60.4445C26.2452 60.9321 26.5703 61.2572 27.0579 61.2572H38.1107C38.5171 61.2572 38.9234 60.8509 38.9234 60.4445V58.3315C40.4676 56.4622 41.2803 54.1054 41.2803 51.7485V47.0348C41.3616 46.7097 41.2803 46.5472 41.1178 46.4659ZM23.2382 38.8264C23.2382 36.1445 25.4325 34.0315 28.1144 34.1127C30.7964 34.1127 32.9094 36.307 32.8281 38.989C32.8281 40.4519 32.178 41.7522 31.0402 42.6462V38.5826C30.9987 37.8783 30.6893 37.2166 30.1755 36.733C29.6618 36.2494 28.9825 35.9807 28.277 35.982C26.8141 35.9007 25.5137 37.1198 25.5137 38.5826V42.8087C24.1321 41.996 23.3194 40.4519 23.2382 38.8264ZM39.7362 51.6672C39.8174 53.7803 39.086 55.8121 37.7044 57.4375C37.5418 57.6 37.3793 57.7626 37.3793 58.0064V59.7131H27.9519V58.5753C27.9519 58.3315 27.7893 58.0877 27.6268 57.9251C27.0579 57.4375 26.5703 56.8686 26.1639 56.1371C25.6763 55.3244 25.3512 54.3492 25.1887 53.3739C25.1887 53.2114 25.1074 53.0489 25.0261 52.8863L21.1251 48.2539C20.8813 48.0101 20.7188 47.685 20.7188 47.2786C20.7188 46.9535 20.8813 46.5472 21.1251 46.3034C21.694 45.8157 22.5067 45.8157 23.0756 46.3034L25.4325 48.6602V51.0984L26.9766 50.2856V38.5826C27.0579 38.0137 27.5455 37.5261 28.1957 37.6074C28.7646 37.6074 29.3335 38.0137 29.3335 38.5826V47.9288L30.9589 48.2539V44.5154C31.0402 44.4341 31.1214 44.4341 31.2027 44.3529C31.7716 44.3529 32.3405 44.4341 32.9094 44.5154V48.6602L34.2097 48.904V44.6779L35.185 44.9218C35.5913 45.003 35.9977 45.1656 36.404 45.3281V49.3917L37.7044 49.6355V45.897C38.4358 46.2221 39.086 46.7097 39.6549 47.2786L39.7362 51.6672Z" fill="white"/>
</g>
<defs>
<clipPath id="clip0_121_3">
<rect width="29.2575" height="29.2575" fill="white" transform="translate(16.4114 32.1622)"/>
</clipPath>
</defs>
</svg>
