<svg width="31" height="30" viewBox="0 0 31 30" fill="none" xmlns="http://www.w3.org/2000/svg">
    <path
        d="M15.5819 1.94901C12.9156 1.95215 10.3593 3.01276 8.47385 4.89819C6.58843 6.78361 5.52781 9.33989 5.52467 12.0063C5.52148 14.1853 6.23323 16.3051 7.55075 18.0406C7.55075 18.0406 7.82504 18.4018 7.86984 18.4539L15.5819 27.5493L23.2977 18.4493C23.3379 18.4009 23.6131 18.0406 23.6131 18.0406L23.614 18.0379C24.9309 16.3031 25.6423 14.1843 25.6392 12.0063C25.6361 9.33989 24.5755 6.78361 22.69 4.89819C20.8046 3.01276 18.2483 1.95215 15.5819 1.94901ZM15.5819 15.6635C14.8586 15.6635 14.1515 15.449 13.5501 15.0471C12.9487 14.6453 12.4799 14.0741 12.2031 13.4058C11.9263 12.7376 11.8539 12.0022 11.995 11.2928C12.1361 10.5834 12.4845 9.93172 12.9959 9.42025C13.5074 8.90879 14.159 8.56047 14.8685 8.41936C15.5779 8.27825 16.3132 8.35067 16.9815 8.62748C17.6498 8.90428 18.2209 9.37303 18.6228 9.97445C19.0246 10.5759 19.2391 11.283 19.2391 12.0063C19.2379 12.9759 18.8522 13.9054 18.1666 14.591C17.481 15.2766 16.5515 15.6623 15.5819 15.6635Z"
        fill="black" />
</svg>