<svg xmlns="http://www.w3.org/2000/svg" width="185.596" height="49.35" viewBox="0 0 185.596 49.35">
    <g transform="translate(-83.404 -54)">
        <text transform="translate(138 91)" fill="#488092" font-size="36"
            font-family="Arial-BoldMT, Arial" font-weight="700">
            <tspan x="0" y="0">OraCan</tspan>
        </text>
        <g transform="translate(126.391 -9383.244)">
            <g transform="translate(-42.39 9437.244)">
                <path
                    d="M26.586,4.225s-1-6.631-8.772-3.279-7.8,1.108-10.557.775S.116,3.9.006,12.122C-.073,18,.641,23.361,2.92,28.18a22,22,0,0,0,3.258,4.958c4.843,5.582,4.661,2.97,4.661,2.97a42.864,42.864,0,0,1,1.27-5.975c1.014-3.679,2.665-9.484,9.426-14.221A11.461,11.461,0,0,0,26.586,4.225Z"
                    transform="matrix(0.978, -0.208, 0.208, 0.978, 0, 12.84)" fill="#488092"
                    stroke="#488092" stroke-width="1" />
                <path
                    d="M-51.14,9477.522s4.253-7.924,14.342-4.2,10.121,1.229,13.7.86,9.265,2.428,9.408,11.564-1.725,17.158-8.009,23.364-7.984,5.289-7.984,5.289-2.354.365-3.67-3.728-4.54-14.177-13.313-19.443S-51.14,9477.522-51.14,9477.522Z"
                    transform="translate(58.594 -9472.329)" fill="#6ac2d6" opacity="0.84" />
            </g>
        </g>
    </g>
</svg>