<svg width="31" height="30" viewBox="0 0 31 30" fill="none" xmlns="http://www.w3.org/2000/svg">
    <path
        d="M25.3345 14.1075H27.7726C27.7726 7.8537 23.0511 3.13715 16.7888 3.13715V5.57527C21.7407 5.57527 25.3345 9.16298 25.3345 14.1075Z"
        fill="black" />
    <path
        d="M16.801 10.4515C19.3647 10.4515 20.4582 11.545 20.4582 14.1087H22.8963C22.8963 10.1772 20.7325 8.01338 16.801 8.01338V10.4515ZM20.9727 17.0869C20.7384 16.874 20.4306 16.7604 20.1142 16.7702C19.7978 16.78 19.4976 16.9123 19.2769 17.1393L16.3597 20.1394C15.6575 20.0053 14.2459 19.5652 12.7927 18.1158C11.3396 16.6614 10.8995 15.2461 10.7691 14.5488L13.7668 11.6303C13.994 11.4098 14.1266 11.1096 14.1363 10.7931C14.1461 10.4766 14.0324 10.1687 13.8192 9.93463L9.31476 4.98157C9.10147 4.74673 8.80504 4.60427 8.48842 4.58447C8.17179 4.56467 7.85992 4.66907 7.61904 4.87551L4.97367 7.14419C4.76291 7.35571 4.63711 7.63724 4.62014 7.93536C4.60186 8.24013 4.2532 15.4594 9.85114 21.0598C14.7347 25.9421 20.852 26.2993 22.5367 26.2993C22.783 26.2993 22.9341 26.292 22.9744 26.2896C23.2724 26.2729 23.5538 26.1465 23.7643 25.9348L26.0318 23.2882C26.2384 23.0475 26.343 22.7357 26.3234 22.4191C26.3038 22.1025 26.1616 21.806 25.9269 21.5925L20.9727 17.0869Z"
        fill="black" />
</svg>