<svg width="203" height="60" viewBox="0 0 203 60" fill="none" xmlns="http://www.w3.org/2000/svg">
<path d="M194.916 60H7.49677C3.29858 60 0 56.7 0 52.5V7.5C0 3.3 3.29858 0 7.49677 0H194.916C199.114 0 202.413 3.3 202.413 7.5V52.5C202.413 56.7 199.114 60 194.916 60Z" fill="black"/>
<path d="M194.916 1.2C198.365 1.2 201.213 4.05 201.213 7.5V52.5C201.213 55.95 198.365 58.8 194.916 58.8H7.49677C4.04826 58.8 1.19948 55.95 1.19948 52.5V7.5C1.19948 4.05 4.04826 1.2 7.49677 1.2H194.916ZM194.916 0H7.49677C3.29858 0 0 3.45 0 7.5V52.5C0 56.7 3.29858 60 7.49677 60H194.916C199.114 60 202.413 56.7 202.413 52.5V7.5C202.413 3.45 199.114 0 194.916 0Z" fill="#A6A6A6"/>
<path d="M71.0694 15.3001C71.0694 16.5001 70.7695 17.5501 70.0198 18.3001C69.1202 19.2001 68.0707 19.6501 66.7212 19.6501C65.3718 19.6501 64.3223 19.2001 63.4227 18.3001C62.523 17.4001 62.0732 16.3501 62.0732 15.0001C62.0732 13.6501 62.523 12.6001 63.4227 11.7001C64.3223 10.8001 65.3718 10.3501 66.7212 10.3501C67.321 10.3501 67.9207 10.5001 68.5205 10.8001C69.1202 11.1001 69.57 11.4001 69.8699 11.8501L69.1202 12.6001C68.5205 11.8501 67.7708 11.5501 66.7212 11.5501C65.8216 11.5501 64.922 11.8501 64.3223 12.6001C63.5726 13.2001 63.2727 14.1001 63.2727 15.1501C63.2727 16.2001 63.5726 17.1001 64.3223 17.7001C65.072 18.3001 65.8216 18.7501 66.7212 18.7501C67.7708 18.7501 68.5205 18.4501 69.2701 17.7001C69.7199 17.2501 70.0198 16.6501 70.0198 15.9001H66.7212V14.7001H71.0694V15.3001ZM77.9664 11.5501H73.9181V14.4001H77.6665V15.4501H73.9181V18.3001H77.9664V19.5001H72.7187V10.5001H77.9664V11.5501ZM82.9143 19.5001H81.7148V11.5501H79.1659V10.5001H85.4632V11.5501H82.9143V19.5001ZM89.8113 19.5001V10.5001H91.0108V19.5001H89.8113ZM96.1086 19.5001H94.9091V11.5501H92.3602V10.5001H98.5075V11.5501H95.9586V19.5001H96.1086ZM110.352 18.3001C109.453 19.2001 108.403 19.6501 107.054 19.6501C105.704 19.6501 104.655 19.2001 103.755 18.3001C102.856 17.4001 102.406 16.3501 102.406 15.0001C102.406 13.6501 102.856 12.6001 103.755 11.7001C104.655 10.8001 105.704 10.3501 107.054 10.3501C108.403 10.3501 109.453 10.8001 110.352 11.7001C111.252 12.6001 111.702 13.6501 111.702 15.0001C111.702 16.3501 111.252 17.4001 110.352 18.3001ZM104.655 17.5501C105.255 18.1501 106.154 18.6001 107.054 18.6001C107.953 18.6001 108.853 18.3001 109.453 17.5501C110.053 16.9501 110.502 16.0501 110.502 15.0001C110.502 13.9501 110.203 13.0501 109.453 12.4501C108.853 11.8501 107.953 11.4001 107.054 11.4001C106.154 11.4001 105.255 11.7001 104.655 12.4501C104.055 13.0501 103.605 13.9501 103.605 15.0001C103.605 16.0501 103.905 16.9501 104.655 17.5501ZM113.351 19.5001V10.5001H114.701L119.049 17.5501V10.5001H120.248V19.5001H119.049L114.401 12.1501V19.5001H113.351Z" fill="white" stroke="white" stroke-width="1.18519" stroke-miterlimit="10"/>
<path d="M102.106 32.6999C98.5076 32.6999 95.6589 35.3999 95.6589 39.1499C95.6589 42.7499 98.5076 45.5999 102.106 45.5999C105.705 45.5999 108.553 42.8999 108.553 39.1499C108.553 35.2499 105.705 32.6999 102.106 32.6999ZM102.106 42.8999C100.157 42.8999 98.5076 41.2499 98.5076 38.9999C98.5076 36.7499 100.157 35.0999 102.106 35.0999C104.055 35.0999 105.705 36.5999 105.705 38.9999C105.705 41.2499 104.055 42.8999 102.106 42.8999ZM88.1621 32.6999C84.5637 32.6999 81.7149 35.3999 81.7149 39.1499C81.7149 42.7499 84.5637 45.5999 88.1621 45.5999C91.7606 45.5999 94.6093 42.8999 94.6093 39.1499C94.6093 35.2499 91.7606 32.6999 88.1621 32.6999ZM88.1621 42.8999C86.2129 42.8999 84.5637 41.2499 84.5637 38.9999C84.5637 36.7499 86.2129 35.0999 88.1621 35.0999C90.1113 35.0999 91.7606 36.5999 91.7606 38.9999C91.7606 41.2499 90.1113 42.8999 88.1621 42.8999ZM71.5193 34.6499V37.3499H77.9665C77.8166 38.8499 77.2168 40.0499 76.4671 40.7999C75.5675 41.6999 74.0682 42.7499 71.5193 42.7499C67.471 42.7499 64.4723 39.5999 64.4723 35.5499C64.4723 31.4999 67.621 28.3499 71.5193 28.3499C73.6184 28.3499 75.2677 29.2499 76.4671 30.2999L78.4163 28.3499C76.767 26.8499 74.6679 25.6499 71.6692 25.6499C66.2715 25.6499 61.6235 30.1499 61.6235 35.5499C61.6235 40.9499 66.2715 45.4499 71.6692 45.4499C74.6679 45.4499 76.767 44.5499 78.5662 42.5999C80.3655 40.7999 80.9652 38.2499 80.9652 36.2999C80.9652 35.6999 80.9652 35.0999 80.8153 34.6499H71.5193ZM139.59 36.7499C138.99 35.2499 137.491 32.6999 134.192 32.6999C130.894 32.6999 128.195 35.2499 128.195 39.1499C128.195 42.7499 130.894 45.5999 134.492 45.5999C137.341 45.5999 139.14 43.7999 139.74 42.7499L137.641 41.2499C136.891 42.2999 135.992 43.0499 134.492 43.0499C132.993 43.0499 132.093 42.4499 131.343 41.0999L139.89 37.4999L139.59 36.7499ZM130.894 38.8499C130.894 36.4499 132.843 35.0999 134.192 35.0999C135.242 35.0999 136.291 35.6999 136.591 36.4499L130.894 38.8499ZM123.847 44.9999H126.696V26.2499H123.847V44.9999ZM119.349 34.0499C118.599 33.2999 117.4 32.5499 115.9 32.5499C112.752 32.5499 109.753 35.3999 109.753 38.9999C109.753 42.5999 112.602 45.2999 115.9 45.2999C117.4 45.2999 118.599 44.5499 119.199 43.7999H119.349V44.6999C119.349 47.0999 117.999 48.4499 115.9 48.4499C114.251 48.4499 113.051 47.2499 112.752 46.1999L110.353 47.2499C111.102 48.8999 112.901 50.9999 116.05 50.9999C119.349 50.9999 122.048 49.0499 122.048 44.3999V32.9999H119.349V34.0499ZM116.05 42.8999C114.101 42.8999 112.452 41.2499 112.452 38.9999C112.452 36.7499 114.101 35.0999 116.05 35.0999C117.999 35.0999 119.499 36.7499 119.499 38.9999C119.499 41.2499 117.999 42.8999 116.05 42.8999ZM152.634 26.2499H145.887V44.9999H148.736V37.9499H152.634C155.783 37.9499 158.782 35.6999 158.782 32.0999C158.782 28.4999 155.783 26.2499 152.634 26.2499ZM152.784 35.2499H148.736V28.7999H152.784C154.883 28.7999 156.083 30.5999 156.083 31.9499C155.933 33.5999 154.733 35.2499 152.784 35.2499ZM170.027 32.5499C167.928 32.5499 165.829 33.4499 165.079 35.3999L167.628 36.4499C168.228 35.3999 169.127 35.0999 170.177 35.0999C171.676 35.0999 173.026 35.9999 173.175 37.4999V37.6499C172.726 37.3499 171.526 36.8999 170.327 36.8999C167.628 36.8999 164.929 38.3999 164.929 41.0999C164.929 43.6499 167.178 45.2999 169.577 45.2999C171.526 45.2999 172.426 44.3999 173.175 43.4999H173.325V44.9999H176.024V37.7999C175.724 34.4999 173.175 32.5499 170.027 32.5499ZM169.727 42.8999C168.827 42.8999 167.478 42.4499 167.478 41.2499C167.478 39.7499 169.127 39.2999 170.477 39.2999C171.676 39.2999 172.276 39.5999 173.026 39.8999C172.726 41.6999 171.226 42.8999 169.727 42.8999ZM185.47 32.9999L182.322 41.0999H182.172L178.873 32.9999H175.874L180.822 44.3999L177.973 50.6999H180.822L188.469 32.9999H185.47ZM160.281 44.9999H163.13V26.2499H160.281V44.9999Z" fill="white"/>
<path d="M15.5933 11.2495C15.1435 11.6995 14.9936 12.4495 14.9936 13.3495V46.4995C14.9936 47.3995 15.2934 48.1495 15.7432 48.5995L15.8932 48.7495L34.4852 30.1495V29.8495L15.5933 11.2495Z" fill="url(#paint0_linear_110_42)"/>
<path d="M40.4826 36.4497L34.3352 30.2997V29.8497L40.4826 23.6997L40.6325 23.8497L47.9793 28.0497C50.0784 29.2497 50.0784 31.1997 47.9793 32.3997L40.4826 36.4497Z" fill="url(#paint1_linear_110_42)"/>
<path d="M40.6325 36.3L34.3352 30L15.5933 48.75C16.3429 49.5 17.3925 49.5 18.7419 48.9L40.6325 36.3Z" fill="url(#paint2_linear_110_42)"/>
<path d="M40.6325 23.6999L18.7419 11.2499C17.3925 10.4999 16.3429 10.6499 15.5933 11.3999L34.3352 29.9999L40.6325 23.6999Z" fill="url(#paint3_linear_110_42)"/>
<path opacity="0.2" d="M40.4825 36.1499L18.7419 48.4499C17.5424 49.1999 16.4929 49.0499 15.7432 48.4499L15.5933 48.5999L15.7432 48.7499C16.4929 49.3499 17.5424 49.4999 18.7419 48.7499L40.4825 36.1499Z" fill="black"/>
<path opacity="0.12" d="M15.5934 48.45C15.1436 48 14.9937 47.25 14.9937 46.35V46.5C14.9937 47.4 15.2935 48.15 15.7433 48.6V48.45H15.5934ZM47.9794 31.95L40.4827 36.15L40.6326 36.3L47.9794 32.1C49.029 31.5 49.4788 30.75 49.4788 30C49.4788 30.75 48.8791 31.35 47.9794 31.95Z" fill="black"/>
<path opacity="0.25" d="M18.742 11.3999L47.9794 28.0499C48.8791 28.6499 49.4788 29.2499 49.4788 29.9999C49.4788 29.2499 49.029 28.4999 47.9794 27.8999L18.742 11.2499C16.6429 10.0499 14.9937 10.9499 14.9937 13.3499V13.4999C14.9937 11.2499 16.6429 10.1999 18.742 11.3999Z" fill="white"/>
<defs>
<linearGradient id="paint0_linear_110_42" x1="32.6859" y1="13.0645" x2="7.51144" y2="38.2267" gradientUnits="userSpaceOnUse">
<stop stop-color="#00A0FF"/>
<stop offset="0.007" stop-color="#00A1FF"/>
<stop offset="0.26" stop-color="#00BEFF"/>
<stop offset="0.512" stop-color="#00D2FF"/>
<stop offset="0.76" stop-color="#00DFFF"/>
<stop offset="1" stop-color="#00E3FF"/>
</linearGradient>
<linearGradient id="paint1_linear_110_42" x1="50.7291" y1="30.0012" x2="14.4493" y2="30.0012" gradientUnits="userSpaceOnUse">
<stop stop-color="#FFE000"/>
<stop offset="0.409" stop-color="#FFBD00"/>
<stop offset="0.775" stop-color="#FFA500"/>
<stop offset="1" stop-color="#FF9C00"/>
</linearGradient>
<linearGradient id="paint2_linear_110_42" x1="37.2244" y1="33.444" x2="3.08745" y2="67.5663" gradientUnits="userSpaceOnUse">
<stop stop-color="#FF3A44"/>
<stop offset="1" stop-color="#C31162"/>
</linearGradient>
<linearGradient id="paint3_linear_110_42" x1="10.9408" y1="0.263924" x2="26.1853" y2="15.5019" gradientUnits="userSpaceOnUse">
<stop stop-color="#32A071"/>
<stop offset="0.069" stop-color="#2DA771"/>
<stop offset="0.476" stop-color="#15CF74"/>
<stop offset="0.801" stop-color="#06E775"/>
<stop offset="1" stop-color="#00F076"/>
</linearGradient>
</defs>
</svg>
