<svg xmlns="http://www.w3.org/2000/svg" xmlns:xlink="http://www.w3.org/1999/xlink" width="73.513" height="73.513" viewBox="0 0 73.513 73.513"><defs><filter id="a" x="0" y="0" width="73.513" height="73.513" filterUnits="userSpaceOnUse"><feOffset dy="3" input="SourceAlpha"/><feGaussianBlur stdDeviation="3" result="b"/><feFlood flood-opacity="0.161"/><feComposite operator="in" in2="b"/><feComposite in="SourceGraphic"/></filter></defs><g transform="translate(-171.175 -212.362)"><g transform="matrix(1, 0, 0, 1, 171.17, 212.36)" filter="url(#a)"><path d="M26.256,0A26.256,26.256,0,1,1,0,26.256,26.256,26.256,0,0,1,26.256,0Z" transform="translate(10.5 7.5)" fill="#9ecfe8" stroke="#1f9ad6" stroke-width="3"/></g><g transform="translate(198.758 233.365)"><g transform="translate(0 9.978)"><g transform="translate(0 0)"><path d="M20.256,257.323a8.938,8.938,0,0,0-8.928,8.928.388.388,0,0,0,.776,0,8.151,8.151,0,0,1,16.3,0,.388.388,0,0,0,.776,0A8.937,8.937,0,0,0,20.256,257.323Z" transform="translate(-11.082 -257.077)"/><path d="M18.5,255.569A8.938,8.938,0,0,0,9.574,264.5a.388.388,0,1,0,.776,0,8.151,8.151,0,0,1,16.3,0,.388.388,0,1,0,.776,0,8.937,8.937,0,0,0-8.928-8.927m0-.246a9.184,9.184,0,0,1,9.173,9.173.634.634,0,1,1-1.268,0,7.906,7.906,0,1,0-15.811,0,.634.634,0,1,1-1.268,0A9.184,9.184,0,0,1,18.5,255.323Z" transform="translate(-9.328 -255.323)"/></g></g><g transform="translate(4.658 0)"><g transform="translate(0)"><path d="M143.6,0a4.27,4.27,0,1,0,4.27,4.27A4.275,4.275,0,0,0,143.6,0Zm0,7.763a3.493,3.493,0,1,1,3.493-3.493A3.5,3.5,0,0,1,143.6,7.763Z" transform="translate(-139.082 0.246)"/><path d="M141.843-1.754a4.27,4.27,0,1,0,4.27,4.27,4.275,4.275,0,0,0-4.27-4.27m0,7.763a3.493,3.493,0,1,1,3.493-3.493,3.5,3.5,0,0,1-3.493,3.493m0-8.009a4.515,4.515,0,1,1-4.515,4.515A4.52,4.52,0,0,1,141.843-2Zm0,7.763A3.248,3.248,0,1,0,138.6,2.515,3.251,3.251,0,0,0,141.843,5.763Z" transform="translate(-137.328 2)"/></g></g></g></g></svg>