<svg xmlns="http://www.w3.org/2000/svg" width="24.934" height="23.375" viewBox="0 0 24.934 23.375"><g transform="translate(0 -1)"><path d="M10.066,4.273,12.248,7.7,9.754,9.415l2.026.468,4.363.935.935-4.208L17.7,4.428,14.9,6.143,11.78,1H8.352L4.3,7.7,6.949,9.259Z" transform="translate(2.401)" fill="#fff"/><path d="M20.467,14.4,16.259,7.7,13.61,9.258,16.727,14.4H12.675V11.284L8,15.959l4.675,4.675V17.518h5.766Z" transform="translate(4.467 3.741)" fill="#fff"/><path d="M3.74,15.015l2.182-3.584,2.649,1.714L7.168,6.6,2.805,7.691.779,8.158,3.273,9.717,0,15.015l2.026,3.117h8.883V15.015Z" transform="translate(0 3.127)" fill="#fff"/></g></svg>