<svg width="37" height="38" viewBox="0 0 37 38" fill="none" xmlns="http://www.w3.org/2000/svg">
<circle cx="18.6789" cy="18.7525" r="18.286" fill="#F6AF03"/>
<path d="M25.6257 13.6684C24.44 13.1925 23.1888 12.8528 21.9034 12.6579C21.8917 12.6562 21.8798 12.6577 21.8691 12.6621C21.8585 12.6666 21.8497 12.6738 21.844 12.6829C21.6828 12.9328 21.5045 13.2596 21.38 13.5155C19.9944 13.3316 18.585 13.3316 17.1994 13.5155C17.0604 13.2305 16.9032 12.9525 16.7285 12.6829C16.7227 12.6739 16.7138 12.6668 16.7032 12.6623C16.6926 12.6579 16.6807 12.6563 16.6691 12.6579C15.3834 12.8518 14.1319 13.1916 12.9468 13.6684C12.9366 13.6718 12.9282 13.6782 12.9228 13.6864C10.5525 16.7841 9.90221 19.8057 10.2211 22.7894C10.2222 22.8034 10.2325 22.8174 10.2451 22.8264C11.6253 23.7206 13.1692 24.4034 14.8108 24.8455C14.8224 24.8487 14.8348 24.8486 14.8463 24.8452C14.8579 24.8418 14.8678 24.8352 14.8748 24.8265C15.2268 24.4067 15.5399 23.9639 15.8097 23.4981C15.8153 23.4885 15.8172 23.4776 15.8151 23.467C15.8131 23.4563 15.8071 23.4466 15.7982 23.4391C15.7923 23.4343 15.7853 23.4305 15.7777 23.4281C15.2853 23.2626 14.8084 23.0638 14.3514 22.8334C14.3386 22.8271 14.3291 22.8167 14.3249 22.8044C14.3206 22.7921 14.3219 22.7789 14.3285 22.7674C14.3324 22.76 14.3383 22.7535 14.3457 22.7484C14.4417 22.6855 14.5377 22.6195 14.6291 22.5535C14.6372 22.5478 14.6468 22.5442 14.6571 22.543C14.6674 22.5417 14.6778 22.543 14.6874 22.5465C17.6805 23.742 20.9205 23.742 23.8771 22.5465C23.887 22.5428 23.8978 22.5415 23.9085 22.5427C23.9192 22.5439 23.9292 22.5477 23.9377 22.5535C24.0291 22.6195 24.1251 22.6855 24.2211 22.7484C24.2289 22.7534 24.2351 22.76 24.2393 22.7676C24.2435 22.7752 24.2454 22.7836 24.2449 22.792C24.2445 22.8004 24.2417 22.8086 24.2367 22.8158C24.2317 22.823 24.2248 22.8291 24.2165 22.8334C23.7606 23.0659 23.2831 23.2645 22.7891 23.4271C22.7812 23.4296 22.7741 23.4336 22.7681 23.4388C22.7622 23.444 22.7577 23.4502 22.7548 23.4571C22.7522 23.4638 22.7511 23.4709 22.7517 23.4779C22.7523 23.485 22.7545 23.4918 22.7582 23.4981C23.0325 23.9629 23.3468 24.4067 23.692 24.8265C23.6989 24.8352 23.7089 24.8418 23.7204 24.8452C23.7319 24.8486 23.7444 24.8487 23.756 24.8455C25.4003 24.4047 26.9467 23.7219 28.3285 22.8264C28.3355 22.8222 28.3412 22.8167 28.3454 22.8103C28.3495 22.8039 28.352 22.7968 28.3525 22.7894C28.7343 19.3399 27.7137 16.3433 25.6485 13.6874C25.6465 13.683 25.6433 13.6791 25.6394 13.6758C25.6355 13.6725 25.6308 13.67 25.6257 13.6684ZM16.2565 20.9722C15.3548 20.9722 14.6131 20.2485 14.6131 19.3609C14.6131 18.4723 15.3411 17.7486 16.2565 17.7486C17.1788 17.7486 17.9137 18.4783 17.8999 19.3609C17.8999 20.2485 17.1719 20.9722 16.2565 20.9722ZM22.332 20.9722C21.4314 20.9722 20.6885 20.2485 20.6885 19.3609C20.6885 18.4723 21.4165 17.7486 22.332 17.7486C23.2542 17.7486 23.9902 18.4783 23.9754 19.3609C23.9754 20.2485 23.2542 20.9722 22.332 20.9722Z" fill="white"/>
</svg>
