<svg width="17" height="17" viewBox="0 0 17 17" fill="none" xmlns="http://www.w3.org/2000/svg">
<g clip-path="url(#clip0_112_923)">
<path fill-rule="evenodd" clip-rule="evenodd" d="M0.704018 8.20948C0.704018 6.06901 1.53886 4.0162 3.02488 2.50266C4.5109 0.989123 6.52638 0.138824 8.62793 0.138824C10.7295 0.138824 12.745 0.989123 14.231 2.50266C15.717 4.0162 16.5518 6.06901 16.5518 8.20948C16.5518 10.3499 15.717 12.4027 14.231 13.9163C12.745 15.4298 10.7295 16.2801 8.62793 16.2801C6.52638 16.2801 4.5109 15.4298 3.02488 13.9163C1.53886 12.4027 0.704018 10.3499 0.704018 8.20948H0.704018ZM8.17574 11.6637L12.7378 5.855L11.9137 5.18352L8.0236 10.1346L5.26819 7.79626L4.59202 8.62269L8.17574 11.6648V11.6637Z" fill="#011C2A"/>
</g>
<defs>
<clipPath id="clip0_112_923">
<rect width="15.8478" height="16.1413" fill="white" transform="translate(0.704018 0.138824)"/>
</clipPath>
</defs>
</svg>
