<svg width="17" height="18" viewBox="0 0 17 18" fill="none" xmlns="http://www.w3.org/2000/svg">
<path d="M8.41151 0.637207C3.83187 0.637207 0.115051 4.35402 0.115051 8.93367C0.115051 13.5133 3.83187 17.2301 8.41151 17.2301C12.9912 17.2301 16.708 13.5133 16.708 8.93367C16.708 4.35402 12.9912 0.637207 8.41151 0.637207ZM8.41151 15.5708C4.75277 15.5708 1.77434 12.5924 1.77434 8.93367C1.77434 5.27493 4.75277 2.2965 8.41151 2.2965C12.0703 2.2965 15.0487 5.27493 15.0487 8.93367C15.0487 12.5924 12.0703 15.5708 8.41151 15.5708ZM12.8066 5.85776C12.4827 5.53163 11.9555 5.5307 11.6305 5.85568L7.45796 10.0283C7.06797 10.4182 6.43586 10.4189 6.04511 10.0296L5.1889 9.17672C4.86537 8.85444 4.342 8.85495 4.0191 9.17785C3.69576 9.50119 3.69576 10.0254 4.0191 10.3488L6.04511 12.3748C6.43564 12.7653 7.0688 12.7653 7.45933 12.3748L12.8045 7.02963C13.1279 6.70626 13.1288 6.18227 12.8066 5.85776Z" fill="black"/>
</svg>
