<svg width="38" height="38" viewBox="0 0 38 38" fill="none" xmlns="http://www.w3.org/2000/svg">
<circle cx="19.0201" cy="18.7525" r="18.286" fill="#F6AF03"/>
<g filter="url(#filter0_d_112_883)">
<path d="M28.7726 13.1758C28.1001 13.4615 27.3683 13.6671 26.6146 13.7471C27.3972 13.2893 27.9832 12.566 28.2628 11.713C27.5284 12.1431 26.7239 12.4448 25.885 12.6045C25.5344 12.2354 25.1103 11.9414 24.6392 11.7407C24.1681 11.54 23.6601 11.437 23.1468 11.4381C21.0701 11.4381 19.4 13.0958 19.4 15.1299C19.4 15.4156 19.4351 15.7012 19.4923 15.9761C16.3827 15.8159 13.6094 14.3531 11.7656 12.1133C11.4297 12.6784 11.2536 13.3218 11.2558 13.9765C11.2558 15.2576 11.9172 16.3872 12.9259 17.0516C12.3315 17.0285 11.751 16.8677 11.2316 16.582V16.6274C11.2316 18.4214 12.5194 19.9081 14.2357 20.25C13.9134 20.3324 13.5819 20.3746 13.249 20.3755C13.005 20.3755 12.7743 20.3517 12.5414 20.3193C13.016 21.7821 14.3983 22.8447 16.0443 22.8793C14.7565 23.8726 13.1435 24.4569 11.392 24.4569C11.0778 24.4569 10.7877 24.446 10.4866 24.4114C12.148 25.461 14.1192 26.0669 16.2421 26.0669C23.1336 26.0669 26.9047 20.4448 26.9047 15.5649C26.9047 15.4048 26.9047 15.2446 26.8937 15.0845C27.6233 14.5586 28.2628 13.9073 28.7726 13.1758Z" fill="white"/>
</g>
<defs>
<filter id="filter0_d_112_883" x="6.48663" y="11.4381" width="26.2859" height="22.6288" filterUnits="userSpaceOnUse" color-interpolation-filters="sRGB">
<feFlood flood-opacity="0" result="BackgroundImageFix"/>
<feColorMatrix in="SourceAlpha" type="matrix" values="0 0 0 0 0 0 0 0 0 0 0 0 0 0 0 0 0 0 127 0" result="hardAlpha"/>
<feOffset dy="4"/>
<feGaussianBlur stdDeviation="2"/>
<feComposite in2="hardAlpha" operator="out"/>
<feColorMatrix type="matrix" values="0 0 0 0 0 0 0 0 0 0 0 0 0 0 0 0 0 0 0.25 0"/>
<feBlend mode="normal" in2="BackgroundImageFix" result="effect1_dropShadow_112_883"/>
<feBlend mode="normal" in="SourceGraphic" in2="effect1_dropShadow_112_883" result="shape"/>
</filter>
</defs>
</svg>
