<svg xmlns="http://www.w3.org/2000/svg" width="262.564" height="79" viewBox="0 0 262.564 79"><g transform="translate(-826.436 -282)"><g transform="translate(826.436 281.382)"><path d="M4.7,48.662,16.507,73.245A11.088,11.088,0,0,0,21.358,78.2a12.51,12.51,0,0,0,7.1,1.357,12.138,12.138,0,0,0,6.6-2.76,10.522,10.522,0,0,0,3.544-5.809L41,59.914v0a1.491,1.491,0,0,1,.569-.857,1.752,1.752,0,0,1,2.068,0,1.491,1.491,0,0,1,.569.857v0l2.41,11.072a10.519,10.519,0,0,0,3.544,5.806,12.139,12.139,0,0,0,6.6,2.76,12.51,12.51,0,0,0,7.1-1.357,11.088,11.088,0,0,0,4.851-4.951L80.512,48.662l0,0A45.569,45.569,0,0,0,85.208,28.7c0-6.6-.874-13.914-7.6-20.12A27.817,27.817,0,0,0,59.986,1.431C48.961.958,43.449.722,43.295.718c-4.928-.133,3.87-.133-1.058,0-.154,0-5.666.24-16.691.713a27.82,27.82,0,0,0-17.6,7.133,23.017,23.017,0,0,0-5.978,7.848A21.309,21.309,0,0,0,.006,25.83V28.7A45.583,45.583,0,0,0,4.7,48.657ZM7.835,28.7V25.773A14.6,14.6,0,0,1,9.2,19.193a15.8,15.8,0,0,1,4.223-5.46l.026-.022.025-.023a20.042,20.042,0,0,1,26.522,0l0,0L46.952,20.1a3.952,3.952,0,0,0,1.273.786,4.234,4.234,0,0,0,3.011,0A3.95,3.95,0,0,0,52.5,20.1a3.6,3.6,0,0,0,.852-1.166,3.328,3.328,0,0,0,0-2.767,3.591,3.591,0,0,0-.85-1.164c-2.007-1.868-1.6-4.995,1.151-5.7a20.425,20.425,0,0,1,6.2-.611,19.634,19.634,0,0,1,12.2,5.034l.008.007c4.35,3.941,5.315,8.637,5.315,14.969a38.876,38.876,0,0,1-3.933,17.038L61.59,70.311l0,.006a3.59,3.59,0,0,1-1.416,1.529,4.05,4.05,0,0,1-2.1.56h-.008a4.084,4.084,0,0,1-2.433-.8,3.519,3.519,0,0,1-1.338-2.027v0l-2.41-11.094,0-.007a8.61,8.61,0,0,0-3.29-4.995,10.121,10.121,0,0,0-11.97,0,8.611,8.611,0,0,0-3.29,4.995l-2.412,11.1v0A3.52,3.52,0,0,1,29.581,71.6a4.082,4.082,0,0,1-2.433.8H27.14a4.051,4.051,0,0,1-2.1-.56,3.588,3.588,0,0,1-1.416-1.529L11.766,45.736A38.8,38.8,0,0,1,7.835,28.7ZM30.971,72.48q-.169.151-.352.289Z" transform="translate(0)" fill="#fff" fill-rule="evenodd"/><path d="M11.4,25.881a6.732,6.732,0,0,1,6.726,6.733,3.363,3.363,0,1,0,6.726,0,6.732,6.732,0,0,1,6.726-6.733,3.367,3.367,0,0,0,0-6.733,6.732,6.732,0,0,1-6.726-6.733,3.363,3.363,0,1,0-6.726,0A6.732,6.732,0,0,1,11.4,19.148a3.367,3.367,0,0,0,0,6.733Z" transform="translate(9.297 7.586)"/></g><text transform="translate(1006 334)" font-size="31" font-family="OpenSans-Bold, Open Sans" font-weight="700"><tspan x="-82.056" y="0">AlignTrack</tspan></text></g></svg>